<svg width="38" height="38" viewBox="0 0 38 38" fill="none" xmlns="http://www.w3.org/2000/svg">
<rect width="38" height="38" rx="19" fill="white"/>
<g clip-path="url(#clip0_4085_8571)">
<path d="M24.012 16.6772L21.3704 16.2933L20.1891 13.8997C19.7328 12.9751 18.4134 12.9754 17.9573 13.8997L16.7759 16.2933L14.1344 16.6772C13.114 16.8254 12.7067 18.0803 13.4447 18.7998L15.3562 20.663L14.905 23.2937C14.7307 24.31 15.7981 25.0852 16.7105 24.6056L19.0732 23.3634L21.4359 24.6056C22.347 25.0846 23.4157 24.3099 23.2415 23.2937L22.7903 20.6629L24.7017 18.7997C25.4399 18.08 25.0319 16.8254 24.012 16.6772ZM23.9571 18.036L21.8449 20.0948C21.7192 20.2174 21.6618 20.3939 21.6915 20.5669L22.1901 23.4741C22.2151 23.6201 22.0632 23.7304 21.9322 23.6615L19.3213 22.2889C19.166 22.2073 18.9803 22.2073 18.825 22.2889L16.2141 23.6615C16.083 23.7304 15.9312 23.6201 15.9562 23.4741L16.4548 20.5669C16.4845 20.3939 16.4271 20.2174 16.3015 20.0948L14.1892 18.036C14.0831 17.9326 14.1412 17.7541 14.2878 17.7327L17.2068 17.3086C17.3805 17.2833 17.5306 17.1743 17.6083 17.0168L18.9138 14.3718C18.9793 14.239 19.167 14.2389 19.2326 14.3718L20.538 17.0168C20.6157 17.1743 20.7659 17.2833 20.9396 17.3086L23.8586 17.7327C24.0051 17.7541 24.0631 17.9326 23.9571 18.036Z" fill="#292929"/>
<path d="M15.2841 13.4735L14.6462 12.5956C14.473 12.3573 14.1395 12.3045 13.9013 12.4777C13.663 12.6508 13.6101 12.9843 13.7833 13.2226L14.4211 14.1005C14.5944 14.3388 14.9279 14.3915 15.1661 14.2184C15.4044 14.0453 15.4572 13.7118 15.2841 13.4735Z" fill="#292929"/>
<path d="M13.1669 21.3408C13.076 21.0607 12.7751 20.9073 12.4949 20.9984L11.4419 21.3406C11.1618 21.4316 11.0085 21.7325 11.0995 22.0126C11.1906 22.2932 11.492 22.446 11.7715 22.355L12.8245 22.0129C13.1047 21.9218 13.258 21.621 13.1669 21.3408Z" fill="#292929"/>
<path d="M24.2462 12.4777C24.0079 12.3046 23.6744 12.3574 23.5012 12.5957L22.8634 13.4735C22.6902 13.7118 22.7431 14.0454 22.9814 14.2185C23.2197 14.3917 23.5532 14.3387 23.7263 14.1005L24.3641 13.2227C24.5373 12.9844 24.4844 12.6508 24.2462 12.4777Z" fill="#292929"/>
<path d="M26.7047 21.3406L25.6517 20.9984C25.3715 20.9072 25.0707 21.0607 24.9796 21.3408C24.8886 21.621 25.0419 21.9219 25.322 22.0129L26.375 22.355C26.6546 22.4459 26.9559 22.2932 27.0471 22.0126C27.1381 21.7325 26.9848 21.4316 26.7047 21.3406Z" fill="#292929"/>
<path d="M19.0734 25.4752C18.7788 25.4752 18.54 25.7139 18.54 26.0085V27.0909C18.54 27.3854 18.7788 27.6242 19.0734 27.6242C19.3679 27.6242 19.6067 27.3854 19.6067 27.0909V26.0085C19.6067 25.7139 19.3679 25.4752 19.0734 25.4752Z" fill="#292929"/>
</g>
<defs>
<clipPath id="clip0_4085_8571">
<rect width="16" height="16" fill="white" transform="translate(11.0732 12)"/>
</clipPath>
</defs>
</svg>
