<svg width="180" height="36" viewBox="0 0 180 36" fill="none" xmlns="http://www.w3.org/2000/svg">
<rect x="15.4277" width="14.6374" height="2.76923" fill="#00C2FF"/>
<rect x="8.30859" y="33.2344" width="14.6374" height="2.76923" fill="#C6E870"/>
<path d="M8.59773 36C1.96679 36 -1.57774 27.9411 0.680784 18C2.93931 8.05887 10.1456 0 16.7766 0C19.1722 0 21.1649 1.05182 22.6267 2.86422C24.912 1.05182 27.3827 0 29.7783 0C34.9724 0 38.2728 4.94486 38.3736 11.8658H25.3719C25.3176 8.13685 24.3345 4.98152 22.6267 2.86422C18.5862 6.06854 15.1251 11.6503 13.6825 18C12.2399 24.3497 13.1648 29.9315 15.7493 33.1358C18.4066 31.0284 20.8134 27.8926 22.5602 24.1863H35.5619C32.3129 31.08 26.7805 36 21.5994 36C19.2038 36 17.2111 34.9482 15.7493 33.1358C13.464 34.9482 10.9933 36 8.59773 36Z" fill="url(#paint0_linear_721_8508)"/>
<path d="M25.3719 11.8658C25.3176 8.13685 24.3345 4.98152 22.6267 2.86422C24.912 1.05182 27.3827 0 29.7783 0C34.9724 0 38.2728 4.94486 38.3736 11.8658H25.3719Z" fill="url(#paint1_linear_721_8508)"/>
<path d="M0.680783 18C-1.57774 27.9411 1.96679 36 8.59772 36C10.9933 36 13.464 34.9482 15.7493 33.1358C13.1648 29.9314 12.2399 24.3497 13.6825 18C15.1251 11.6503 18.5862 6.06858 22.6267 2.86425C21.1649 1.05183 19.1721 0 16.7766 0C10.1456 0 2.93931 8.05887 0.680783 18Z" fill="#00C2FF"/>
<path d="M52.077 27V10.2H59.685C60.805 10.2 61.781 10.408 62.613 10.824C63.461 11.24 64.117 11.824 64.581 12.576C65.061 13.312 65.301 14.176 65.301 15.168C65.301 16.272 64.989 17.224 64.365 18.024C63.741 18.824 62.901 19.4 61.845 19.752L65.589 27H62.805L59.325 20.112H54.597V27H52.077ZM54.597 18H59.493C60.485 18 61.277 17.752 61.869 17.256C62.477 16.744 62.781 16.056 62.781 15.192C62.781 14.36 62.477 13.688 61.869 13.176C61.277 12.664 60.485 12.408 59.493 12.408H54.597V18ZM72.7388 27.216C71.5388 27.216 70.4508 26.936 69.4748 26.376C68.5148 25.816 67.7468 25.056 67.1708 24.096C66.6108 23.136 66.3308 22.064 66.3308 20.88C66.3308 19.712 66.6028 18.656 67.1468 17.712C67.6908 16.752 68.4268 15.992 69.3548 15.432C70.2828 14.856 71.3148 14.568 72.4508 14.568C73.5868 14.568 74.5948 14.856 75.4748 15.432C76.3548 15.992 77.0508 16.76 77.5628 17.736C78.0908 18.696 78.3548 19.784 78.3548 21V21.672H68.7308C68.8588 22.344 69.1068 22.944 69.4748 23.472C69.8588 24 70.3388 24.416 70.9148 24.72C71.5068 25.024 72.1468 25.176 72.8348 25.176C73.4268 25.176 73.9948 25.088 74.5388 24.912C75.0988 24.72 75.5628 24.448 75.9308 24.096L77.4668 25.608C76.7468 26.152 76.0028 26.56 75.2348 26.832C74.4828 27.088 73.6508 27.216 72.7388 27.216ZM68.7548 19.872H75.9788C75.8828 19.232 75.6588 18.672 75.3068 18.192C74.9708 17.696 74.5468 17.312 74.0348 17.04C73.5388 16.752 72.9948 16.608 72.4028 16.608C71.7948 16.608 71.2348 16.744 70.7228 17.016C70.2108 17.288 69.7788 17.672 69.4268 18.168C69.0908 18.648 68.8668 19.216 68.7548 19.872ZM84.3405 27.216C83.4605 27.216 82.6845 27.064 82.0125 26.76C81.3405 26.44 80.8125 26 80.4285 25.44C80.0445 24.88 79.8525 24.232 79.8525 23.496C79.8525 22.344 80.2925 21.44 81.1725 20.784C82.0525 20.112 83.2605 19.776 84.7965 19.776C85.9965 19.776 87.1085 20.008 88.1325 20.472V19.176C88.1325 18.296 87.8765 17.64 87.3645 17.208C86.8685 16.776 86.1325 16.56 85.1565 16.56C84.5965 16.56 84.0125 16.648 83.4045 16.824C82.7965 16.984 82.1165 17.24 81.3645 17.592L80.4765 15.792C81.4045 15.36 82.2685 15.048 83.0685 14.856C83.8685 14.648 84.6765 14.544 85.4925 14.544C87.0765 14.544 88.3005 14.92 89.1645 15.672C90.0445 16.424 90.4845 17.496 90.4845 18.888V27H88.1325V25.944C87.5885 26.376 87.0045 26.696 86.3805 26.904C85.7565 27.112 85.0765 27.216 84.3405 27.216ZM82.1565 23.448C82.1565 24.04 82.4045 24.52 82.9005 24.888C83.4125 25.24 84.0765 25.416 84.8925 25.416C85.5325 25.416 86.1165 25.328 86.6445 25.152C87.1885 24.96 87.6845 24.664 88.1325 24.264V22.2C87.6685 21.928 87.1805 21.736 86.6685 21.624C86.1725 21.496 85.6125 21.432 84.9885 21.432C84.1085 21.432 83.4125 21.616 82.9005 21.984C82.4045 22.336 82.1565 22.824 82.1565 23.448ZM93.25 27V10.2L95.65 9.744V27H93.25ZM103.78 27V10.2H107.164L112.42 20.952L117.676 10.2H121.036V27H118.66V13.272L112.396 25.8L106.132 13.272V27H103.78ZM129.972 27.24C128.788 27.24 127.708 26.96 126.732 26.4C125.772 25.84 125.012 25.08 124.452 24.12C123.892 23.16 123.612 22.088 123.612 20.904C123.612 19.72 123.892 18.648 124.452 17.688C125.012 16.728 125.772 15.968 126.732 15.408C127.708 14.832 128.788 14.544 129.972 14.544C131.172 14.544 132.252 14.832 133.212 15.408C134.172 15.968 134.932 16.728 135.492 17.688C136.052 18.648 136.332 19.72 136.332 20.904C136.332 22.088 136.052 23.16 135.492 24.12C134.932 25.08 134.172 25.84 133.212 26.4C132.252 26.96 131.172 27.24 129.972 27.24ZM129.972 25.128C130.724 25.128 131.404 24.944 132.012 24.576C132.62 24.192 133.1 23.68 133.452 23.04C133.804 22.4 133.98 21.68 133.98 20.88C133.98 20.096 133.796 19.392 133.428 18.768C133.076 18.128 132.596 17.616 131.988 17.232C131.396 16.848 130.724 16.656 129.972 16.656C129.22 16.656 128.54 16.848 127.932 17.232C127.34 17.616 126.86 18.128 126.492 18.768C126.14 19.392 125.964 20.096 125.964 20.88C125.964 21.68 126.14 22.4 126.492 23.04C126.844 23.68 127.324 24.192 127.932 24.576C128.54 24.944 129.22 25.128 129.972 25.128ZM138.602 27V14.784H141.002V16.032C141.946 15.04 143.17 14.544 144.674 14.544C145.618 14.544 146.442 14.744 147.146 15.144C147.866 15.544 148.426 16.104 148.826 16.824C149.242 17.544 149.45 18.376 149.45 19.32V27H147.05V19.728C147.05 18.768 146.778 18.016 146.234 17.472C145.706 16.912 144.962 16.632 144.002 16.632C143.362 16.632 142.786 16.768 142.274 17.04C141.762 17.312 141.338 17.704 141.002 18.216V27H138.602ZM158.075 27.216C156.875 27.216 155.787 26.936 154.811 26.376C153.851 25.816 153.083 25.056 152.507 24.096C151.947 23.136 151.667 22.064 151.667 20.88C151.667 19.712 151.939 18.656 152.483 17.712C153.027 16.752 153.763 15.992 154.691 15.432C155.619 14.856 156.651 14.568 157.787 14.568C158.923 14.568 159.931 14.856 160.811 15.432C161.691 15.992 162.387 16.76 162.899 17.736C163.427 18.696 163.691 19.784 163.691 21V21.672H154.067C154.195 22.344 154.443 22.944 154.811 23.472C155.195 24 155.675 24.416 156.251 24.72C156.843 25.024 157.483 25.176 158.171 25.176C158.763 25.176 159.331 25.088 159.875 24.912C160.435 24.72 160.899 24.448 161.267 24.096L162.803 25.608C162.083 26.152 161.339 26.56 160.571 26.832C159.819 27.088 158.987 27.216 158.075 27.216ZM154.091 19.872H161.315C161.219 19.232 160.995 18.672 160.643 18.192C160.307 17.696 159.883 17.312 159.371 17.04C158.875 16.752 158.331 16.608 157.739 16.608C157.131 16.608 156.571 16.744 156.059 17.016C155.547 17.288 155.115 17.672 154.763 18.168C154.427 18.648 154.203 19.216 154.091 19.872ZM166.441 32.16C166.185 32.16 165.945 32.144 165.721 32.112C165.497 32.096 165.313 32.064 165.169 32.016V29.904C165.457 29.968 165.809 30 166.225 30C167.345 30 168.153 29.4 168.649 28.2L169.177 27.024L164.281 14.784H166.945L170.497 24.096L174.433 14.784H177.025L171.121 28.512C170.737 29.376 170.329 30.072 169.897 30.6C169.465 31.144 168.969 31.536 168.409 31.776C167.849 32.032 167.193 32.16 166.441 32.16Z" fill="#FCFCFC"/>
<defs>
<linearGradient id="paint0_linear_721_8508" x1="28.3491" y1="24.2515" x2="20.3731" y2="34.3837" gradientUnits="userSpaceOnUse">
<stop stop-color="#9ABB46"/>
<stop offset="1" stop-color="#C6E870"/>
</linearGradient>
<linearGradient id="paint1_linear_721_8508" x1="19.1868" y1="0" x2="19.1868" y2="36" gradientUnits="userSpaceOnUse">
<stop stop-color="white"/>
<stop offset="1" stop-color="white" stop-opacity="0"/>
</linearGradient>
</defs>
</svg>
