<svg width="32" height="32" viewBox="0 0 32 32" fill="none" xmlns="http://www.w3.org/2000/svg">
<path fill-rule="evenodd" clip-rule="evenodd" d="M15.583 5.26561L5.05466 26.2911C4.83217 26.7354 5.33426 27.1912 5.74422 26.917L9.60016 24.3385L21.5374 16.4724C21.7424 16.3373 21.8142 16.0671 21.7039 15.8456L16.4363 5.26659C16.2595 4.91159 15.7605 4.91101 15.583 5.26561ZM18.1708 20.7401L22.1061 18.0058C22.3431 17.8412 22.6684 17.9241 22.8009 18.1828L26.9434 26.2804C27.1703 26.7239 26.669 27.1845 26.257 26.9109L18.1791 21.5476C17.8939 21.3583 17.8896 20.9355 18.1708 20.7401ZM16.0107 11.3196L12.8999 17.0327L14.0284 17.3193L15.157 17.6058L18.1039 15.1721L16.0107 11.3196Z" fill="white"/>
</svg>
