<svg width="32" height="32" viewBox="0 0 32 32" fill="none" xmlns="http://www.w3.org/2000/svg">
<path d="M13 24C13 24.2652 12.8946 24.5196 12.7071 24.7071C12.5196 24.8946 12.2652 25 12 25H9C8.73478 25 8.48043 24.8946 8.29289 24.7071C8.10536 24.5196 8 24.2652 8 24C8 23.7348 8.10536 23.4804 8.29289 23.2929C8.48043 23.1054 8.73478 23 9 23H12C12.2652 23 12.5196 23.1054 12.7071 23.2929C12.8946 23.4804 13 23.7348 13 24ZM9 14H19C19.2652 14 19.5196 13.8946 19.7071 13.7071C19.8946 13.5196 20 13.2652 20 13C20 12.7348 19.8946 12.4804 19.7071 12.2929C19.5196 12.1054 19.2652 12 19 12H9C8.73478 12 8.48043 12.1054 8.29289 12.2929C8.10536 12.4804 8 12.7348 8 13C8 13.2652 8.10536 13.5196 8.29289 13.7071C8.48043 13.8946 8.73478 14 9 14ZM9 9H19C19.2652 9 19.5196 8.89464 19.7071 8.70711C19.8946 8.51957 20 8.26522 20 8C20 7.73478 19.8946 7.48043 19.7071 7.29289C19.5196 7.10536 19.2652 7 19 7H9C8.73478 7 8.48043 7.10536 8.29289 7.29289C8.10536 7.48043 8 7.73478 8 8C8 8.26522 8.10536 8.51957 8.29289 8.70711C8.48043 8.89464 8.73478 9 9 9ZM29 18V21.51C28.9947 23.3237 28.4341 25.0924 27.3936 26.578C26.3531 28.0636 24.8827 29.195 23.18 29.82C23.0158 29.8781 22.844 29.9118 22.67 29.92C22.4509 29.9749 22.2258 30.0018 22 30H6C5.20435 30 4.44129 29.6839 3.87868 29.1213C3.31607 28.5587 3 27.7956 3 27V5C3 4.20435 3.31607 3.44129 3.87868 2.87868C4.44129 2.31607 5.20435 2 6 2H22C22.7956 2 23.5587 2.31607 24.1213 2.87868C24.6839 3.44129 25 4.20435 25 5V15.84L28.34 17.06C28.5333 17.1299 28.7003 17.2576 28.8184 17.4258C28.9365 17.594 28.9999 17.7945 29 18ZM6 28H18.88C17.9774 27.1761 17.2555 26.1739 16.7598 25.0569C16.2641 23.9398 16.0054 22.7321 16 21.51V19H9C8.73478 19 8.48043 18.8946 8.29289 18.7071C8.10536 18.5196 8 18.2652 8 18C8 17.7348 8.10536 17.4804 8.29289 17.2929C8.48043 17.1054 8.73478 17 9 17H16.82L22.16 15.06C22.3797 14.9806 22.6203 14.9806 22.84 15.06L23 15.12V5C23 4.73478 22.8946 4.48043 22.7071 4.29289C22.5196 4.10536 22.2652 4 22 4H6C5.73478 4 5.48043 4.10536 5.29289 4.29289C5.10536 4.48043 5 4.73478 5 5V27C5 27.2652 5.10536 27.5196 5.29289 27.7071C5.48043 27.8946 5.73478 28 6 28ZM27 18.7L23.63 17.48L22.53 17.08L18 18.7V21.51C18.0023 22.9134 18.435 24.2823 19.2396 25.4321C20.0443 26.5819 21.1823 27.4572 22.5 27.94C23.8177 27.4572 24.9557 26.5819 25.7604 25.4321C26.565 24.2823 26.9977 22.9134 27 21.51V18.7ZM22 22.59L20.71 21.29C20.5217 21.1017 20.2663 20.9959 20 20.9959C19.7337 20.9959 19.4783 21.1017 19.29 21.29C19.1017 21.4783 18.9959 21.7337 18.9959 22C18.9959 22.2663 19.1017 22.5217 19.29 22.71L21.29 24.71C21.383 24.8037 21.4936 24.8781 21.6154 24.9289C21.7373 24.9797 21.868 25.0058 22 25.0058C22.132 25.0058 22.2627 24.9797 22.3846 24.9289C22.5064 24.8781 22.617 24.8037 22.71 24.71L25.71 21.71C25.8983 21.5217 26.0041 21.2663 26.0041 21C26.0041 20.7337 25.8983 20.4783 25.71 20.29C25.5217 20.1017 25.2663 19.9959 25 19.9959C24.7337 19.9959 24.4783 20.1017 24.29 20.29L22 22.59Z" fill="white"/>
</svg>
