<svg width="32" height="32" viewBox="0 0 32 32" fill="none" xmlns="http://www.w3.org/2000/svg">
<g clip-path="url(#clip0_148_66353)">
<mask id="mask0_148_66353" style="mask-type:luminance" maskUnits="userSpaceOnUse" x="5" y="3" width="22" height="26">
<path d="M26.4627 3.88867H5V28.1109H26.4627V3.88867Z" fill="white"/>
</mask>
<g mask="url(#mask0_148_66353)">
<path d="M23.6534 3.91474C21.476 5.88748 19.3016 7.86311 17.1243 9.83585C16.8027 9.87324 14.0562 10.25 12.7014 12.7001C11.9415 14.0718 11.9927 15.4176 12.0525 15.9927C12.0525 15.9927 11.5516 20.5422 16.2704 21.6091C18.7068 22.1583 21.5557 21.3991 23.7586 22.8054C25.5688 23.9614 26.4027 25.9486 26.3657 28.0708C26.3657 28.0795 17.7817 28.0996 17.0019 28.1082C14.207 28.1341 11.8732 27.2138 9.6731 25.4625C6.57935 22.9951 4.87451 18.8972 5.00544 14.9489C5.13636 11.0609 7.55842 7.35986 10.8628 5.38998C13.9195 3.56678 17.3406 3.91474 20.7446 3.91474H23.6534Z" fill="white"/>
<path d="M15.3148 27.9813C13.3225 27.7196 11.5664 26.5348 10.3568 24.9445C9.09599 23.2823 8.62353 21.4677 8.59507 19.4001C8.55807 16.6423 9.3749 13.8759 11.5124 12.0469C12.9525 10.8161 15.2266 9.91885 17.1221 9.83545C15.366 10.3186 13.4051 11.3912 12.5028 13.0361C11.6518 14.5919 11.7571 16.4237 12.2808 18.0715C12.9127 20.0557 14.5549 21.4677 16.6069 21.7697C18.2548 22.0113 19.9141 21.7007 21.5649 22.0228C22.2765 22.1608 22.9879 22.365 23.6312 22.7072C25.6235 23.7684 26.3521 25.9367 26.3606 28.0704C24.189 28.056 22.0174 28.0446 19.843 28.0302C18.3687 28.0215 16.8005 28.1739 15.3091 27.9784L15.3148 27.9813Z" fill="white"/>
<path d="M26.463 3.92041V10.0946H19.8827L26.463 3.92041Z" fill="white"/>
</g>
</g>
<defs>
<clipPath id="clip0_148_66353">
<rect width="21.8" height="24.2222" fill="white" transform="translate(5 3.88867)"/>
</clipPath>
</defs>
</svg>
