<svg width="47" height="46" viewBox="0 0 47 46" fill="none" xmlns="http://www.w3.org/2000/svg">
<g filter="url(#filter0_i_345_8518)">
<rect x="1.3335" y="1" width="44" height="44" rx="12" fill="url(#paint0_linear_345_8518)"/>
<rect x="1.3335" y="1" width="44" height="44" rx="12" fill="url(#paint1_radial_345_8518)" fill-opacity="0.1"/>
<rect x="0.833496" y="0.5" width="45" height="45" rx="12.5" stroke="#767676"/>
<path d="M32.3335 15.5H14.3335C13.9357 15.5 13.5541 15.658 13.2728 15.9393C12.9915 16.2206 12.8335 16.6022 12.8335 17V29C12.8335 29.3978 12.9915 29.7794 13.2728 30.0607C13.5541 30.342 13.9357 30.5 14.3335 30.5H32.3335C32.7313 30.5 33.1129 30.342 33.3942 30.0607C33.6755 29.7794 33.8335 29.3978 33.8335 29V17C33.8335 16.6022 33.6755 16.2206 33.3942 15.9393C33.1129 15.658 32.7313 15.5 32.3335 15.5ZM32.3335 17V19.25H14.3335V17H32.3335ZM32.3335 29H14.3335V20.75H32.3335V29ZM30.8335 26.75C30.8335 26.9489 30.7545 27.1397 30.6138 27.2803C30.4732 27.421 30.2824 27.5 30.0835 27.5H27.0835C26.8846 27.5 26.6938 27.421 26.5532 27.2803C26.4125 27.1397 26.3335 26.9489 26.3335 26.75C26.3335 26.5511 26.4125 26.3603 26.5532 26.2197C26.6938 26.079 26.8846 26 27.0835 26H30.0835C30.2824 26 30.4732 26.079 30.6138 26.2197C30.7545 26.3603 30.8335 26.5511 30.8335 26.75ZM24.8335 26.75C24.8335 26.9489 24.7545 27.1397 24.6138 27.2803C24.4732 27.421 24.2824 27.5 24.0835 27.5H22.5835C22.3846 27.5 22.1938 27.421 22.0532 27.2803C21.9125 27.1397 21.8335 26.9489 21.8335 26.75C21.8335 26.5511 21.9125 26.3603 22.0532 26.2197C22.1938 26.079 22.3846 26 22.5835 26H24.0835C24.2824 26 24.4732 26.079 24.6138 26.2197C24.7545 26.3603 24.8335 26.5511 24.8335 26.75Z" fill="#010101"/>
</g>
<defs>
<filter id="filter0_i_345_8518" x="0.333496" y="0" width="46" height="50" filterUnits="userSpaceOnUse" color-interpolation-filters="sRGB">
<feFlood flood-opacity="0" result="BackgroundImageFix"/>
<feBlend mode="normal" in="SourceGraphic" in2="BackgroundImageFix" result="shape"/>
<feColorMatrix in="SourceAlpha" type="matrix" values="0 0 0 0 0 0 0 0 0 0 0 0 0 0 0 0 0 0 127 0" result="hardAlpha"/>
<feOffset dy="4"/>
<feGaussianBlur stdDeviation="2"/>
<feComposite in2="hardAlpha" operator="arithmetic" k2="-1" k3="1"/>
<feColorMatrix type="matrix" values="0 0 0 0 1 0 0 0 0 1 0 0 0 0 1 0 0 0 0.1 0"/>
<feBlend mode="normal" in2="shape" result="effect1_innerShadow_345_8518"/>
</filter>
<linearGradient id="paint0_linear_345_8518" x1="23.4475" y1="45" x2="23.4475" y2="1" gradientUnits="userSpaceOnUse">
<stop stop-color="#00C2FF"/>
<stop offset="1" stop-color="#7BDFFF"/>
</linearGradient>
<radialGradient id="paint1_radial_345_8518" cx="0" cy="0" r="1" gradientUnits="userSpaceOnUse" gradientTransform="translate(23.3335 23) scale(22)">
<stop stop-color="white"/>
<stop offset="1" stop-color="white" stop-opacity="0"/>
</radialGradient>
</defs>
</svg>
