<svg width="50" height="50" viewBox="0 0 50 50" fill="none" xmlns="http://www.w3.org/2000/svg">
<g filter="url(#filter0_i_293_60150)">
<rect x="0.5" y="0.5" width="49" height="49" rx="24.5" stroke="#464646"/>
<path d="M27.7812 32.2198C27.8509 32.2895 27.9062 32.3722 27.9439 32.4632C27.9816 32.5543 28.001 32.6519 28.001 32.7504C28.001 32.849 27.9816 32.9465 27.9439 33.0376C27.9062 33.1286 27.8509 33.2114 27.7812 33.281C27.7115 33.3507 27.6288 33.406 27.5378 33.4437C27.4467 33.4814 27.3491 33.5008 27.2506 33.5008C27.152 33.5008 27.0545 33.4814 26.9634 33.4437C26.8724 33.406 26.7896 33.3507 26.72 33.281L19.22 25.781C19.1502 25.7114 19.0949 25.6287 19.0572 25.5376C19.0194 25.4466 19 25.349 19 25.2504C19 25.1519 19.0194 25.0543 19.0572 24.9632C19.0949 24.8722 19.1502 24.7894 19.22 24.7198L26.72 17.2198C26.8607 17.0791 27.0516 17 27.2506 17C27.4496 17 27.6405 17.0791 27.7812 17.2198C27.9219 17.3605 28.001 17.5514 28.001 17.7504C28.001 17.9494 27.9219 18.1403 27.7812 18.281L20.8109 25.2504L27.7812 32.2198Z" fill="white"/>
</g>
<defs>
<filter id="filter0_i_293_60150" x="0" y="0" width="50" height="54" filterUnits="userSpaceOnUse" color-interpolation-filters="sRGB">
<feFlood flood-opacity="0" result="BackgroundImageFix"/>
<feBlend mode="normal" in="SourceGraphic" in2="BackgroundImageFix" result="shape"/>
<feColorMatrix in="SourceAlpha" type="matrix" values="0 0 0 0 0 0 0 0 0 0 0 0 0 0 0 0 0 0 127 0" result="hardAlpha"/>
<feOffset dy="4"/>
<feGaussianBlur stdDeviation="2"/>
<feComposite in2="hardAlpha" operator="arithmetic" k2="-1" k3="1"/>
<feColorMatrix type="matrix" values="0 0 0 0 1 0 0 0 0 1 0 0 0 0 1 0 0 0 0.1 0"/>
<feBlend mode="normal" in2="shape" result="effect1_innerShadow_293_60150"/>
</filter>
</defs>
</svg>
