<svg width="50" height="50" viewBox="0 0 50 50" fill="none" xmlns="http://www.w3.org/2000/svg">
<g filter="url(#filter0_i_293_60151)">
<rect x="0.5" y="0.5" width="49" height="49" rx="24.5" stroke="#464646"/>
<path d="M29.781 25.781L22.281 33.281C22.2114 33.3507 22.1286 33.406 22.0376 33.4437C21.9465 33.4814 21.849 33.5008 21.7504 33.5008C21.6519 33.5008 21.5543 33.4814 21.4632 33.4437C21.3722 33.406 21.2895 33.3507 21.2198 33.281C21.1501 33.2114 21.0948 33.1286 21.0571 33.0376C21.0194 32.9465 21 32.849 21 32.7504C21 32.6519 21.0194 32.5543 21.0571 32.4632C21.0948 32.3722 21.1501 32.2895 21.2198 32.2198L28.1901 25.2504L21.2198 18.281C21.0791 18.1403 21 17.9494 21 17.7504C21 17.5514 21.0791 17.3605 21.2198 17.2198C21.3605 17.0791 21.5514 17 21.7504 17C21.9494 17 22.1403 17.0791 22.281 17.2198L29.781 24.7198C29.8508 24.7894 29.9061 24.8722 29.9438 24.9632C29.9816 25.0543 30.001 25.1519 30.001 25.2504C30.001 25.349 29.9816 25.4466 29.9438 25.5376C29.9061 25.6287 29.8508 25.7114 29.781 25.781Z" fill="white"/>
</g>
<defs>
<filter id="filter0_i_293_60151" x="0" y="0" width="50" height="54" filterUnits="userSpaceOnUse" color-interpolation-filters="sRGB">
<feFlood flood-opacity="0" result="BackgroundImageFix"/>
<feBlend mode="normal" in="SourceGraphic" in2="BackgroundImageFix" result="shape"/>
<feColorMatrix in="SourceAlpha" type="matrix" values="0 0 0 0 0 0 0 0 0 0 0 0 0 0 0 0 0 0 127 0" result="hardAlpha"/>
<feOffset dy="4"/>
<feGaussianBlur stdDeviation="2"/>
<feComposite in2="hardAlpha" operator="arithmetic" k2="-1" k3="1"/>
<feColorMatrix type="matrix" values="0 0 0 0 1 0 0 0 0 1 0 0 0 0 1 0 0 0 0.1 0"/>
<feBlend mode="normal" in2="shape" result="effect1_innerShadow_293_60151"/>
</filter>
</defs>
</svg>
