<svg width="32" height="32" viewBox="0 0 32 32" fill="none" xmlns="http://www.w3.org/2000/svg">
<path d="M16 30.6665C15.5107 30.6676 15.026 30.5725 14.5734 30.3865C11.0505 29.004 8.02804 26.5884 5.90306 23.4568C3.77808 20.3253 2.6499 16.6243 2.66669 12.8399V7.41319C2.66631 6.50262 2.97661 5.61916 3.54633 4.90883C4.11605 4.1985 4.91108 3.70382 5.80002 3.50652L15.1334 1.42652C15.7049 1.30639 16.2952 1.30639 16.8667 1.42652L26.2 3.50652C27.089 3.70382 27.884 4.1985 28.4537 4.90883C29.0234 5.61916 29.3337 6.50262 29.3334 7.41319V12.8399C29.3473 16.6253 28.2182 20.3268 26.0938 23.4599C23.9693 26.5931 20.9485 29.0119 17.4267 30.3999C16.9714 30.575 16.4879 30.6654 16 30.6665ZM16 3.99986H15.7067L6.37336 6.07986C6.07258 6.14759 5.80457 6.31747 5.61495 6.56057C5.42534 6.80367 5.32582 7.10498 5.33336 7.41319V12.8399C5.3199 16.0912 6.28916 19.2708 8.11406 21.9618C9.93897 24.6527 12.5344 26.7295 15.56 27.9199C15.8437 28.0262 16.1563 28.0262 16.44 27.9199C19.4657 26.7295 22.0611 24.6527 23.886 21.9618C25.7109 19.2708 26.6801 16.0912 26.6667 12.8399V7.41319C26.6742 7.10498 26.5747 6.80367 26.3851 6.56057C26.1955 6.31747 25.9275 6.14759 25.6267 6.07986L16.2934 3.99986H16ZM14.9734 19.6932C14.6255 19.6953 14.2905 19.5613 14.04 19.3199L11 16.3332C10.8751 16.2092 10.7759 16.0618 10.7082 15.8993C10.6405 15.7368 10.6056 15.5625 10.6056 15.3865C10.6056 15.2105 10.6405 15.0362 10.7082 14.8738C10.7759 14.7113 10.8751 14.5638 11 14.4399C11.2498 14.1915 11.5878 14.0521 11.94 14.0521C12.2923 14.0521 12.6302 14.1915 12.88 14.4399L14.9867 16.5065L20.4667 11.1732C20.5919 11.0497 20.7402 10.9522 20.9031 10.886C21.066 10.8199 21.2403 10.7865 21.4161 10.7877C21.5919 10.789 21.7658 10.8248 21.9277 10.8933C22.0897 10.9617 22.2366 11.0613 22.36 11.1865C22.4835 11.3117 22.581 11.46 22.6472 11.6229C22.7133 11.7858 22.7467 11.9601 22.7455 12.136C22.7442 12.3118 22.7084 12.4856 22.64 12.6476C22.5715 12.8095 22.4719 12.9564 22.3467 13.0799L15.9334 19.3865C15.6658 19.6104 15.3212 19.7205 14.9734 19.6932Z" fill="white"/>
</svg>
