<svg width="120" height="92" viewBox="0 0 120 92" fill="none" xmlns="http://www.w3.org/2000/svg">
<path d="M11.4798 83.7907C4.6287 76.5176 0.950195 68.3554 0.950195 55.1239C0.950195 31.8527 17.2859 10.9904 41.0535 0.679688L46.9899 9.84077C24.8106 21.8413 20.4757 37.4063 18.7432 47.2217C22.3141 45.375 26.9887 44.7253 31.5714 45.1503C43.5705 46.2628 53.0275 56.1128 53.0275 68.3554C53.0275 81.2098 42.6068 91.6303 29.7523 91.6303C22.6165 91.6303 15.7927 88.3685 11.4798 83.7907ZM77.9796 83.7907C71.1288 76.5176 67.45 68.3554 67.45 55.1239C67.45 31.8527 83.7857 10.9904 107.553 0.679688L113.49 9.84077C91.3102 21.8413 86.9757 37.4063 85.2427 47.2217C88.8138 45.375 93.4887 44.7253 98.0712 45.1503C110.07 46.2628 119.527 56.1128 119.527 68.3554C119.527 81.2098 109.107 91.6303 96.2524 91.6303C89.1163 91.6303 82.2928 88.3685 77.9796 83.7907Z" fill="white"/>
</svg>
