<svg width="46" height="46" viewBox="0 0 46 46" fill="none" xmlns="http://www.w3.org/2000/svg">
<g filter="url(#filter0_i_125_70169)">
<rect x="1" y="1" width="44" height="44" rx="12" fill="url(#paint0_linear_125_70169)"/>
<rect x="1" y="1" width="44" height="44" rx="12" fill="url(#paint1_radial_125_70169)" fill-opacity="0.1"/>
<rect x="0.5" y="0.5" width="45" height="45" rx="12.5" stroke="#767676"/>
<path d="M23 13.25C21.0716 13.25 19.1866 13.8218 17.5832 14.8932C15.9798 15.9645 14.7301 17.4873 13.9922 19.2688C13.2542 21.0504 13.0611 23.0108 13.4373 24.9021C13.8136 26.7934 14.7422 28.5307 16.1057 29.8943C17.4693 31.2579 19.2066 32.1865 21.0979 32.5627C22.9892 32.9389 24.9496 32.7458 26.7312 32.0078C28.5127 31.2699 30.0355 30.0202 31.1068 28.4168C32.1782 26.8134 32.75 24.9284 32.75 23C32.747 20.4151 31.7188 17.9368 29.891 16.109C28.0632 14.2812 25.585 13.253 23 13.25ZM31.25 23C31.2507 23.7608 31.1456 24.5181 30.9378 25.25H27.3275C27.5575 23.7588 27.5575 22.2412 27.3275 20.75H30.9378C31.1456 21.4819 31.2507 22.2392 31.25 23ZM20.5625 26.75H25.4375C24.9572 28.3237 24.1235 29.7667 23 30.9688C21.877 29.7664 21.0433 28.3235 20.5625 26.75ZM20.1969 25.25C19.9394 23.7611 19.9394 22.2389 20.1969 20.75H25.8106C26.0681 22.2389 26.0681 23.7611 25.8106 25.25H20.1969ZM14.75 23C14.7494 22.2392 14.8544 21.4819 15.0622 20.75H18.6725C18.4425 22.2412 18.4425 23.7588 18.6725 25.25H15.0622C14.8544 24.5181 14.7494 23.7608 14.75 23ZM25.4375 19.25H20.5625C21.0428 17.6763 21.8765 16.2333 23 15.0312C24.1231 16.2336 24.9567 17.6765 25.4375 19.25ZM30.3434 19.25H27.0041C26.5832 17.7059 25.8738 16.2553 24.9134 14.975C26.0738 15.2537 27.1602 15.7801 28.098 16.518C29.0359 17.2559 29.8032 18.1878 30.3472 19.25H30.3434ZM21.0866 14.975C20.1262 16.2553 19.4168 17.7059 18.9959 19.25H15.6528C16.1968 18.1878 16.9641 17.2559 17.902 16.518C18.8399 15.7801 19.9262 15.2537 21.0866 14.975ZM15.6528 26.75H18.9959C19.4168 28.2941 20.1262 29.7447 21.0866 31.025C19.9262 30.7463 18.8399 30.2199 17.902 29.482C16.9641 28.7441 16.1968 27.8122 15.6528 26.75ZM24.9134 31.025C25.8738 29.7447 26.5832 28.2941 27.0041 26.75H30.3472C29.8032 27.8122 29.0359 28.7441 28.098 29.482C27.1602 30.2199 26.0738 30.7463 24.9134 31.025Z" fill="#010101"/>
</g>
<defs>
<filter id="filter0_i_125_70169" x="0" y="0" width="46" height="50" filterUnits="userSpaceOnUse" color-interpolation-filters="sRGB">
<feFlood flood-opacity="0" result="BackgroundImageFix"/>
<feBlend mode="normal" in="SourceGraphic" in2="BackgroundImageFix" result="shape"/>
<feColorMatrix in="SourceAlpha" type="matrix" values="0 0 0 0 0 0 0 0 0 0 0 0 0 0 0 0 0 0 127 0" result="hardAlpha"/>
<feOffset dy="4"/>
<feGaussianBlur stdDeviation="2"/>
<feComposite in2="hardAlpha" operator="arithmetic" k2="-1" k3="1"/>
<feColorMatrix type="matrix" values="0 0 0 0 1 0 0 0 0 1 0 0 0 0 1 0 0 0 0.1 0"/>
<feBlend mode="normal" in2="shape" result="effect1_innerShadow_125_70169"/>
</filter>
<linearGradient id="paint0_linear_125_70169" x1="23.114" y1="45" x2="23.114" y2="1" gradientUnits="userSpaceOnUse">
<stop stop-color="#00C2FF"/>
<stop offset="1" stop-color="#7BDFFF"/>
</linearGradient>
<radialGradient id="paint1_radial_125_70169" cx="0" cy="0" r="1" gradientUnits="userSpaceOnUse" gradientTransform="translate(23 23) scale(22)">
<stop stop-color="white"/>
<stop offset="1" stop-color="white" stop-opacity="0"/>
</radialGradient>
</defs>
</svg>
