<svg width="46" height="46" viewBox="0 0 46 46" fill="none" xmlns="http://www.w3.org/2000/svg">
<g filter="url(#filter0_i_125_70148)">
<rect x="1" y="1" width="44" height="44" rx="12" fill="url(#paint0_linear_125_70148)"/>
<rect x="1" y="1" width="44" height="44" rx="12" fill="url(#paint1_radial_125_70148)" fill-opacity="0.1"/>
<rect x="0.5" y="0.5" width="45" height="45" rx="12.5" stroke="#767676"/>
<path d="M32.6489 30.8776C31.2211 28.4091 29.0208 26.6391 26.4529 25.8001C27.7231 25.0439 28.7099 23.8917 29.2619 22.5205C29.8139 21.1492 29.9004 19.6347 29.5083 18.2094C29.1162 16.7842 28.2671 15.5271 27.0914 14.6312C25.9156 13.7352 24.4783 13.25 23.0001 13.25C21.5219 13.25 20.0846 13.7352 18.9089 14.6312C17.7332 15.5271 16.8841 16.7842 16.492 18.2094C16.0998 19.6347 16.1864 21.1492 16.7384 22.5205C17.2903 23.8917 18.2772 25.0439 19.5473 25.8001C16.9795 26.6382 14.7792 28.4082 13.3514 30.8776C13.299 30.9629 13.2643 31.0579 13.2492 31.1569C13.2342 31.256 13.2391 31.357 13.2637 31.4541C13.2884 31.5511 13.3322 31.6423 13.3926 31.7222C13.4531 31.802 13.5289 31.869 13.6156 31.9191C13.7023 31.9692 13.7982 32.0014 13.8976 32.0138C13.997 32.0263 14.0978 32.0187 14.1942 31.9915C14.2906 31.9643 14.3806 31.9181 14.4588 31.8556C14.5371 31.7931 14.602 31.7156 14.6498 31.6276C16.4161 28.5751 19.5379 26.7526 23.0001 26.7526C26.4623 26.7526 29.5842 28.5751 31.3504 31.6276C31.3982 31.7156 31.4632 31.7931 31.5414 31.8556C31.6197 31.9181 31.7097 31.9643 31.806 31.9915C31.9024 32.0187 32.0033 32.0263 32.1027 32.0138C32.2021 32.0014 32.2979 31.9692 32.3847 31.9191C32.4714 31.869 32.5472 31.802 32.6076 31.7222C32.6681 31.6423 32.7119 31.5511 32.7365 31.4541C32.7611 31.357 32.7661 31.256 32.751 31.1569C32.736 31.0579 32.7012 30.9629 32.6489 30.8776ZM17.7501 20.0026C17.7501 18.9642 18.058 17.9492 18.6349 17.0858C19.2118 16.2224 20.0317 15.5495 20.991 15.1522C21.9504 14.7548 23.006 14.6509 24.0244 14.8534C25.0428 15.056 25.9782 15.556 26.7124 16.2902C27.4467 17.0245 27.9467 17.9599 28.1493 18.9783C28.3518 19.9967 28.2479 21.0523 27.8505 22.0116C27.4531 22.971 26.7802 23.7909 25.9169 24.3678C25.0535 24.9446 24.0385 25.2526 23.0001 25.2526C21.6082 25.2511 20.2737 24.6975 19.2895 23.7132C18.3052 22.729 17.7516 21.3945 17.7501 20.0026Z" fill="#010101"/>
</g>
<defs>
<filter id="filter0_i_125_70148" x="0" y="0" width="46" height="50" filterUnits="userSpaceOnUse" color-interpolation-filters="sRGB">
<feFlood flood-opacity="0" result="BackgroundImageFix"/>
<feBlend mode="normal" in="SourceGraphic" in2="BackgroundImageFix" result="shape"/>
<feColorMatrix in="SourceAlpha" type="matrix" values="0 0 0 0 0 0 0 0 0 0 0 0 0 0 0 0 0 0 127 0" result="hardAlpha"/>
<feOffset dy="4"/>
<feGaussianBlur stdDeviation="2"/>
<feComposite in2="hardAlpha" operator="arithmetic" k2="-1" k3="1"/>
<feColorMatrix type="matrix" values="0 0 0 0 1 0 0 0 0 1 0 0 0 0 1 0 0 0 0.1 0"/>
<feBlend mode="normal" in2="shape" result="effect1_innerShadow_125_70148"/>
</filter>
<linearGradient id="paint0_linear_125_70148" x1="23.114" y1="45" x2="23.114" y2="1" gradientUnits="userSpaceOnUse">
<stop stop-color="#00C2FF"/>
<stop offset="1" stop-color="#7BDFFF"/>
</linearGradient>
<radialGradient id="paint1_radial_125_70148" cx="0" cy="0" r="1" gradientUnits="userSpaceOnUse" gradientTransform="translate(23 23) scale(22)">
<stop stop-color="white"/>
<stop offset="1" stop-color="white" stop-opacity="0"/>
</radialGradient>
</defs>
</svg>
