<svg width="46" height="46" viewBox="0 0 46 46" fill="none" xmlns="http://www.w3.org/2000/svg">
<g filter="url(#filter0_i_125_70163)">
<rect x="1" y="1" width="44" height="44" rx="12" fill="url(#paint0_linear_125_70163)"/>
<rect x="1" y="1" width="44" height="44" rx="12" fill="url(#paint1_radial_125_70163)" fill-opacity="0.1"/>
<rect x="0.5" y="0.5" width="45" height="45" rx="12.5" stroke="#767676"/>
<g clip-path="url(#clip0_125_70163)">
<path d="M34.9033 20.5847L30.6377 13.3161C30.4421 12.9829 30.0143 12.8699 29.6797 13.0631L27.1233 14.539L24.8205 13.6921C24.1004 13.4272 23.3061 13.4953 22.6416 13.879L19.1448 15.8978L16.0448 14.108C15.88 14.0129 15.6838 13.9886 15.5007 14.0407C15.3177 14.0928 15.1636 14.2169 15.0736 14.3846L11.0836 21.8237C10.9041 22.1584 11.0228 22.5751 11.3517 22.765L12.935 23.6791L12.1409 25.0544C11.5594 26.0617 11.9057 27.3543 12.913 27.9359C13.3806 28.2058 13.9094 28.2755 14.4003 28.1723C14.5563 28.649 14.8812 29.0722 15.3487 29.3421C15.8162 29.612 16.3451 29.6818 16.8359 29.5786C16.992 30.0552 17.3168 30.4785 17.7844 30.7484C18.2519 31.0183 18.7808 31.088 19.2716 30.9848C19.4277 31.4615 19.7526 31.8847 20.2201 32.1546C21.2274 32.7362 22.52 32.3898 23.1015 31.3825L23.1924 31.2252L25.831 32.7486C26.8383 33.3302 28.1309 32.9838 28.7125 31.9765C28.8497 31.7388 28.9347 31.4851 28.9721 31.2287C29.8693 31.465 30.8509 31.0853 31.3365 30.244C31.5038 29.9543 31.5939 29.641 31.614 29.3278C32.3815 29.3681 33.1447 28.987 33.5547 28.277C33.9646 27.567 33.913 26.7155 33.4943 26.0709C33.7555 25.8969 33.9818 25.6622 34.149 25.3726C34.7145 24.3931 34.4025 23.1441 33.4588 22.5411L34.7436 21.4834C35.0106 21.2637 35.0782 20.8827 34.9033 20.5847ZM23.3447 15.0968C23.6467 14.9224 24.0076 14.8915 24.3351 15.0119L26.9469 15.9726C27.1429 16.0446 27.3605 16.0259 27.5412 15.9216L29.7782 14.63L33.3868 20.779L32.1604 21.7887L23.7151 16.9127C23.4975 16.7871 23.2295 16.7871 23.012 16.9127L19.125 19.1568C18.8016 19.3525 18.3468 19.2307 18.1646 18.8995C17.9689 18.5761 18.0907 18.1212 18.4219 17.939L23.3447 15.0968ZM13.6162 26.718C13.2804 26.5241 13.165 26.0933 13.3588 25.7575L14.5307 23.7278C14.7246 23.392 15.1554 23.2766 15.4912 23.4705C15.827 23.6643 15.9424 24.0952 15.7485 24.4309L14.5767 26.4607C14.3828 26.7964 13.952 26.9119 13.6162 26.718ZM16.0519 28.1243C15.7161 27.9304 15.6006 27.4996 15.7945 27.1638L17.4351 24.3221C17.629 23.9863 18.0598 23.8709 18.3956 24.0648C18.7314 24.2587 18.8468 24.6895 18.653 25.0253L17.0123 27.8669C16.8185 28.2027 16.3876 28.3181 16.0519 28.1243ZM18.4875 29.5305C18.1518 29.3366 18.0363 28.9058 18.2302 28.57L19.4021 26.5403C19.5959 26.2045 20.0268 26.0891 20.3625 26.283C20.6983 26.4768 20.8138 26.9077 20.6199 27.2434L19.448 29.2732C19.2542 29.6089 18.8233 29.7244 18.4875 29.5305ZM20.9233 30.9368C20.5875 30.7429 20.472 30.3121 20.6659 29.9763L21.369 28.7584C21.5629 28.4227 21.9937 28.3072 22.3295 28.5011C22.6653 28.695 22.7807 29.1258 22.5868 29.4616L21.8837 30.6794C21.6899 31.0152 21.2591 31.1307 20.9233 30.9368ZM32.3369 27.5739C32.1431 27.9097 31.7122 28.0251 31.3765 27.8312L27.7229 25.7219C27.3867 25.5277 26.9566 25.6429 26.7625 25.9792C26.5683 26.3155 26.6835 26.7455 27.0198 26.9397L29.8614 28.5803C30.1972 28.7742 30.3126 29.205 30.1188 29.5408C29.9249 29.8765 29.4941 29.992 29.1583 29.7981L26.3167 28.1575C25.9804 27.9633 25.5504 28.0786 25.3562 28.4148C25.1621 28.7511 25.2773 29.1811 25.6136 29.3753L27.2374 30.3128C27.5731 30.5067 27.6886 30.9375 27.4947 31.2733C27.3008 31.609 26.87 31.7245 26.5342 31.5306L23.8884 30.003C24.3474 29.0229 23.9869 27.8341 23.0327 27.2831C22.743 27.1159 22.4297 27.0257 22.1165 27.0056C22.1567 26.2381 21.7757 25.4749 21.0657 25.0649C20.776 24.8977 20.4627 24.8076 20.1495 24.7875C20.1898 24.0199 19.8088 23.2567 19.0987 22.8468C18.3887 22.4369 17.5373 22.4885 16.8927 22.9071C16.7187 22.6459 16.484 22.4197 16.1943 22.2524C15.3836 21.7843 14.3883 21.9178 13.7274 22.5127L12.645 21.8879L15.97 15.6886L17.7386 16.7098L17.7188 16.7212C17.2309 17.0029 16.8818 17.4578 16.736 18.002C16.5902 18.5462 16.665 19.1147 16.9467 19.6026C17.2284 20.0905 17.6833 20.4396 18.2275 20.5854C18.7717 20.7312 19.3402 20.6564 19.8281 20.3747L23.3635 18.3336L32.6739 23.709C33.0096 23.9029 33.1251 24.3337 32.9312 24.6695C32.7373 25.0052 32.3065 25.1207 31.9708 24.9268L29.1291 23.2862C28.7929 23.092 28.3628 23.2073 28.1687 23.5435C27.9745 23.8798 28.0897 24.3098 28.426 24.504L32.0796 26.6134C32.4154 26.8073 32.5308 27.2381 32.3369 27.5739Z" fill="#010101"/>
</g>
</g>
<defs>
<filter id="filter0_i_125_70163" x="0" y="0" width="46" height="50" filterUnits="userSpaceOnUse" color-interpolation-filters="sRGB">
<feFlood flood-opacity="0" result="BackgroundImageFix"/>
<feBlend mode="normal" in="SourceGraphic" in2="BackgroundImageFix" result="shape"/>
<feColorMatrix in="SourceAlpha" type="matrix" values="0 0 0 0 0 0 0 0 0 0 0 0 0 0 0 0 0 0 127 0" result="hardAlpha"/>
<feOffset dy="4"/>
<feGaussianBlur stdDeviation="2"/>
<feComposite in2="hardAlpha" operator="arithmetic" k2="-1" k3="1"/>
<feColorMatrix type="matrix" values="0 0 0 0 1 0 0 0 0 1 0 0 0 0 1 0 0 0 0.1 0"/>
<feBlend mode="normal" in2="shape" result="effect1_innerShadow_125_70163"/>
</filter>
<linearGradient id="paint0_linear_125_70163" x1="23.114" y1="45" x2="23.114" y2="1" gradientUnits="userSpaceOnUse">
<stop stop-color="#00C2FF"/>
<stop offset="1" stop-color="#7BDFFF"/>
</linearGradient>
<radialGradient id="paint1_radial_125_70163" cx="0" cy="0" r="1" gradientUnits="userSpaceOnUse" gradientTransform="translate(23 23) scale(22)">
<stop stop-color="white"/>
<stop offset="1" stop-color="white" stop-opacity="0"/>
</radialGradient>
<clipPath id="clip0_125_70163">
<rect width="24" height="24" fill="white" transform="translate(11 11)"/>
</clipPath>
</defs>
</svg>
