<svg width="1440" height="744" viewBox="0 0 1440 744" fill="none" xmlns="http://www.w3.org/2000/svg">
<g clip-path="url(#clip0_183_54537)">
<rect width="1440" height="744" fill="#272835"/>
<g opacity="0.8">
<mask id="mask0_183_54537" style="mask-type:alpha" maskUnits="userSpaceOnUse" x="-186" y="-238" width="1956" height="1440">
<path d="M681.84 303.828C681.84 451.088 779.205 570.465 899.31 570.465C1019.42 570.465 1769.82 53.9679 1769.82 -93.292C1769.82 -240.552 691.635 -37.8213 571.529 -37.8213C451.424 -37.8213 681.84 156.568 681.84 303.828Z" fill="url(#paint0_linear_183_54537)"/>
<path d="M597.374 934.853C597.374 1082.11 694.739 1201.49 814.844 1201.49C934.95 1201.49 1604.04 1167.17 1604.04 1019.91C1604.04 872.645 1554.58 523.821 1434.48 523.821C1314.37 523.821 597.374 787.593 597.374 934.853Z" fill="url(#paint1_radial_183_54537)"/>
<path d="M350.679 304.232C26.6133 596.92 176.312 449.832 -102.032 442.422C-145.697 450.833 -219.824 451.233 -167.011 385.542C-100.995 303.427 -122.271 245.429 -39.7689 155.965C42.7334 66.5012 92.9777 -24.3926 217.533 -166.683C342.089 -308.973 351.671 -191.679 492.092 -202.798C632.512 -213.917 568.466 -196.26 762.21 10.1974C955.954 216.654 674.745 11.5432 350.679 304.232Z" fill="#D9D9D9"/>
<path d="M656.625 764.614C1090.31 815.672 881.029 799.913 1058.79 1014.23C1093.88 1041.55 1143 1097.06 1058.79 1100.59C953.52 1105 923.893 1159.21 802.236 1156.06C680.579 1152.91 579.092 1174.97 389.988 1174.97C200.883 1174.97 282.828 1090.5 181.973 992.169C81.1168 893.835 136.587 930.395 164.323 648.629C192.058 366.864 222.945 713.555 656.625 764.614Z" fill="#D9D9D9"/>
</mask>
<g mask="url(#mask0_183_54537)">
<g opacity="0.3">
<line y1="-0.630349" x2="1511.58" y2="-0.630349" transform="matrix(-1 0 0 1 1472.29 610.178)" stroke="#EBD9FE" stroke-opacity="0.4" stroke-width="1.2607"/>
<line y1="-0.630349" x2="1511.58" y2="-0.630349" transform="matrix(-1 0 0 1 1472.29 287.439)" stroke="#EBD9FE" stroke-opacity="0.4" stroke-width="1.2607"/>
<line y1="-0.630349" x2="1511.58" y2="-0.630349" transform="matrix(-1 0 0 1 1472.29 448.807)" stroke="#EBD9FE" stroke-opacity="0.4" stroke-width="1.2607"/>
<line y1="-0.630349" x2="1511.58" y2="-0.630349" transform="matrix(-1 0 0 1 1472.29 126.069)" stroke="#EBD9FE" stroke-opacity="0.4" stroke-width="1.2607"/>
<line y1="-0.630349" x2="1511.58" y2="-0.630349" transform="matrix(-1 0 0 1 1472.29 529.493)" stroke="#EBD9FE" stroke-opacity="0.4" stroke-width="1.2607"/>
<line y1="-0.630349" x2="1511.58" y2="-0.630349" transform="matrix(-1 0 0 1 1472.29 206.754)" stroke="#EBD9FE" stroke-opacity="0.4" stroke-width="1.2607"/>
<line y1="-0.630349" x2="1511.58" y2="-0.630349" transform="matrix(-1 0 0 1 1472.29 368.122)" stroke="#EBD9FE" stroke-opacity="0.4" stroke-width="1.2607"/>
<line y1="-0.630349" x2="1511.58" y2="-0.630349" transform="matrix(-1 0 0 1 1472.29 690.863)" stroke="#EBD9FE" stroke-opacity="0.4" stroke-width="1.2607"/>
<line y1="-0.630349" x2="1511.58" y2="-0.630349" transform="matrix(-1 0 0 1 1472.29 45.3843)" stroke="#EBD9FE" stroke-opacity="0.4" stroke-width="1.2607"/>
<line y1="-0.630349" x2="1167.41" y2="-0.630349" transform="matrix(4.37114e-08 1 1 -4.37114e-08 1425.65 -64.2954)" stroke="#EBD9FE" stroke-opacity="0.4" stroke-width="1.2607"/>
<line y1="-0.630349" x2="1167.41" y2="-0.630349" transform="matrix(4.37114e-08 1 1 -4.37114e-08 780.17 -64.2954)" stroke="#EBD9FE" stroke-opacity="0.4" stroke-width="1.2607"/>
<line y1="-0.630349" x2="1167.41" y2="-0.630349" transform="matrix(4.37114e-08 1 1 -4.37114e-08 1102.91 -64.2955)" stroke="#EBD9FE" stroke-opacity="0.4" stroke-width="1.2607"/>
<line y1="-0.630349" x2="1167.41" y2="-0.630349" transform="matrix(4.37114e-08 1 1 -4.37114e-08 457.434 -64.2954)" stroke="#EBD9FE" stroke-opacity="0.4" stroke-width="1.2607"/>
<line y1="-0.630349" x2="1167.41" y2="-0.630349" transform="matrix(4.37114e-08 1 1 -4.37114e-08 134.693 -64.2954)" stroke="#EBD9FE" stroke-opacity="0.4" stroke-width="1.2607"/>
<line y1="-0.630349" x2="1167.41" y2="-0.630349" transform="matrix(4.37114e-08 1 1 -4.37114e-08 1264.28 -64.2954)" stroke="#EBD9FE" stroke-opacity="0.4" stroke-width="1.2607"/>
<line y1="-0.630349" x2="1167.41" y2="-0.630349" transform="matrix(4.37114e-08 1 1 -4.37114e-08 618.804 -64.2954)" stroke="#EBD9FE" stroke-opacity="0.4" stroke-width="1.2607"/>
<line y1="-0.630349" x2="1167.41" y2="-0.630349" transform="matrix(4.37114e-08 1 1 -4.37114e-08 941.539 -64.2954)" stroke="#EBD9FE" stroke-opacity="0.4" stroke-width="1.2607"/>
<line y1="-0.630349" x2="1167.41" y2="-0.630349" transform="matrix(4.37114e-08 1 1 -4.37114e-08 296.063 -64.2955)" stroke="#EBD9FE" stroke-opacity="0.4" stroke-width="1.2607"/>
<line y1="-0.630349" x2="1167.41" y2="-0.630349" transform="matrix(4.37114e-08 1 1 -4.37114e-08 1344.96 -64.2954)" stroke="#EBD9FE" stroke-opacity="0.4" stroke-width="1.2607"/>
<line y1="-0.630349" x2="1167.41" y2="-0.630349" transform="matrix(4.37114e-08 1 1 -4.37114e-08 699.486 -64.2955)" stroke="#EBD9FE" stroke-opacity="0.4" stroke-width="1.2607"/>
<line y1="-0.630349" x2="1167.41" y2="-0.630349" transform="matrix(4.37114e-08 1 1 -4.37114e-08 1022.23 -64.2954)" stroke="#EBD9FE" stroke-opacity="0.4" stroke-width="1.2607"/>
<line y1="-0.630349" x2="1167.41" y2="-0.630349" transform="matrix(4.37114e-08 1 1 -4.37114e-08 376.746 -64.2954)" stroke="#EBD9FE" stroke-opacity="0.4" stroke-width="1.2607"/>
<line y1="-0.630349" x2="1167.41" y2="-0.630349" transform="matrix(4.37114e-08 1 1 -4.37114e-08 54.0107 -64.2954)" stroke="#EBD9FE" stroke-opacity="0.4" stroke-width="1.2607"/>
<line y1="-0.630349" x2="1167.41" y2="-0.630349" transform="matrix(4.37114e-08 1 1 -4.37114e-08 1183.59 -64.2954)" stroke="#EBD9FE" stroke-opacity="0.4" stroke-width="1.2607"/>
<line y1="-0.630349" x2="1167.41" y2="-0.630349" transform="matrix(4.37114e-08 1 1 -4.37114e-08 538.116 -64.2954)" stroke="#EBD9FE" stroke-opacity="0.4" stroke-width="1.2607"/>
<line y1="-0.630349" x2="1167.41" y2="-0.630349" transform="matrix(4.37114e-08 1 1 -4.37114e-08 860.857 -64.2954)" stroke="#EBD9FE" stroke-opacity="0.4" stroke-width="1.2607"/>
<line y1="-0.630349" x2="1167.41" y2="-0.630349" transform="matrix(4.37114e-08 1 1 -4.37114e-08 215.381 -64.2954)" stroke="#EBD9FE" stroke-opacity="0.4" stroke-width="1.2607"/>
</g>
<g opacity="0.7">
<rect width="80.2262" height="79.0801" transform="matrix(-1 0 0 1 294.918 206.983)" fill="#A174F1" fill-opacity="0.11"/>
<rect width="80.2262" height="79.0801" transform="matrix(-1 0 0 1 941.312 126.757)" fill="#A174F1" fill-opacity="0.31"/>
<rect width="80.2262" height="79.0801" transform="matrix(-1 0 0 1 376.29 287.209)" fill="#A174F1" fill-opacity="0.11"/>
<rect width="80.2262" height="79.0801" transform="matrix(-1 0 0 1 1022.68 206.983)" fill="#A174F1" fill-opacity="0.31"/>
<rect width="80.2262" height="79.0801" transform="matrix(-1 0 0 1 376.29 206.983)" fill="#A174F1" fill-opacity="0.11"/>
<rect width="80.2262" height="79.0801" transform="matrix(-1 0 0 1 1022.68 126.757)" fill="#A174F1" fill-opacity="0.31"/>
<rect width="80.2262" height="80.2262" transform="matrix(-1 0 0 1 1263.36 690.633)" fill="url(#paint2_linear_183_54537)" fill-opacity="0.24"/>
<rect width="81.3723" height="82.5184" transform="matrix(-1 0 0 1 1263.36 124.465)" fill="url(#paint3_linear_183_54537)" fill-opacity="0.24"/>
<rect width="81.3723" height="80.2262" transform="matrix(-1 0 0 1 1424.96 45.3845)" fill="url(#paint4_linear_183_54537)" fill-opacity="0.24"/>
<rect width="80.2262" height="81.3723" transform="matrix(-1 0 0 1 669.013 286.063)" fill="url(#paint5_linear_183_54537)" fill-opacity="0.24"/>
</g>
</g>
</g>
</g>
<defs>
<linearGradient id="paint0_linear_183_54537" x1="1250.41" y1="-19.5411" x2="795.933" y2="222.513" gradientUnits="userSpaceOnUse">
<stop stop-color="white"/>
<stop offset="1" stop-color="white" stop-opacity="0"/>
</linearGradient>
<radialGradient id="paint1_radial_183_54537" cx="0" cy="0" r="1" gradientUnits="userSpaceOnUse" gradientTransform="translate(1285.08 941.112) rotate(-150.607) scale(777.019 1335.47)">
<stop stop-color="white"/>
<stop offset="1" stop-color="white" stop-opacity="0"/>
</radialGradient>
<linearGradient id="paint2_linear_183_54537" x1="0" y1="40.1131" x2="80.2262" y2="40.1131" gradientUnits="userSpaceOnUse">
<stop stop-color="#A174F1"/>
<stop offset="1" stop-color="#A174F1" stop-opacity="0"/>
</linearGradient>
<linearGradient id="paint3_linear_183_54537" x1="0" y1="41.2592" x2="81.3723" y2="41.2592" gradientUnits="userSpaceOnUse">
<stop stop-color="#A174F1"/>
<stop offset="1" stop-color="#A174F1" stop-opacity="0"/>
</linearGradient>
<linearGradient id="paint4_linear_183_54537" x1="0" y1="40.1131" x2="81.3723" y2="40.1131" gradientUnits="userSpaceOnUse">
<stop stop-color="#A174F1"/>
<stop offset="1" stop-color="#A174F1" stop-opacity="0"/>
</linearGradient>
<linearGradient id="paint5_linear_183_54537" x1="0" y1="40.6862" x2="80.2262" y2="40.6862" gradientUnits="userSpaceOnUse">
<stop stop-color="#A174F1"/>
<stop offset="1" stop-color="#A174F1" stop-opacity="0"/>
</linearGradient>
<clipPath id="clip0_183_54537">
<rect width="1440" height="744" fill="white"/>
</clipPath>
</defs>
</svg>
