<svg width="47" height="46" viewBox="0 0 47 46" fill="none" xmlns="http://www.w3.org/2000/svg">
<g filter="url(#filter0_i_90_199998)">
<rect x="1.33301" y="1" width="44" height="44" rx="12" fill="url(#paint0_linear_90_199998)"/>
<rect x="1.33301" y="1" width="44" height="44" rx="12" fill="url(#paint1_radial_90_199998)" fill-opacity="0.1"/>
<rect x="0.833008" y="0.5" width="45" height="45" rx="12.5" stroke="#767676"/>
<path d="M23.333 13.25C18.2864 13.25 14.333 15.5563 14.333 18.5V27.5C14.333 30.4438 18.2864 32.75 23.333 32.75C28.3796 32.75 32.333 30.4438 32.333 27.5V18.5C32.333 15.5563 28.3796 13.25 23.333 13.25ZM30.833 23C30.833 23.9019 30.0943 24.8216 28.8071 25.5238C27.3577 26.3141 25.4133 26.75 23.333 26.75C21.2527 26.75 19.3083 26.3141 17.8589 25.5238C16.5718 24.8216 15.833 23.9019 15.833 23V21.44C17.4324 22.8463 20.1671 23.75 23.333 23.75C26.4989 23.75 29.2336 22.8425 30.833 21.44V23ZM17.8589 15.9763C19.3083 15.1859 21.2527 14.75 23.333 14.75C25.4133 14.75 27.3577 15.1859 28.8071 15.9763C30.0943 16.6784 30.833 17.5981 30.833 18.5C30.833 19.4019 30.0943 20.3216 28.8071 21.0237C27.3577 21.8141 25.4133 22.25 23.333 22.25C21.2527 22.25 19.3083 21.8141 17.8589 21.0237C16.5718 20.3216 15.833 19.4019 15.833 18.5C15.833 17.5981 16.5718 16.6784 17.8589 15.9763ZM28.8071 30.0238C27.3577 30.8141 25.4133 31.25 23.333 31.25C21.2527 31.25 19.3083 30.8141 17.8589 30.0238C16.5718 29.3216 15.833 28.4019 15.833 27.5V25.94C17.4324 27.3463 20.1671 28.25 23.333 28.25C26.4989 28.25 29.2336 27.3425 30.833 25.94V27.5C30.833 28.4019 30.0943 29.3216 28.8071 30.0238Z" fill="#010101"/>
</g>
<defs>
<filter id="filter0_i_90_199998" x="0.333008" y="0" width="46" height="50" filterUnits="userSpaceOnUse" color-interpolation-filters="sRGB">
<feFlood flood-opacity="0" result="BackgroundImageFix"/>
<feBlend mode="normal" in="SourceGraphic" in2="BackgroundImageFix" result="shape"/>
<feColorMatrix in="SourceAlpha" type="matrix" values="0 0 0 0 0 0 0 0 0 0 0 0 0 0 0 0 0 0 127 0" result="hardAlpha"/>
<feOffset dy="4"/>
<feGaussianBlur stdDeviation="2"/>
<feComposite in2="hardAlpha" operator="arithmetic" k2="-1" k3="1"/>
<feColorMatrix type="matrix" values="0 0 0 0 1 0 0 0 0 1 0 0 0 0 1 0 0 0 0.1 0"/>
<feBlend mode="normal" in2="shape" result="effect1_innerShadow_90_199998"/>
</filter>
<linearGradient id="paint0_linear_90_199998" x1="23.447" y1="45" x2="23.447" y2="1" gradientUnits="userSpaceOnUse">
<stop stop-color="#00C2FF"/>
<stop offset="1" stop-color="#7BDFFF"/>
</linearGradient>
<radialGradient id="paint1_radial_90_199998" cx="0" cy="0" r="1" gradientUnits="userSpaceOnUse" gradientTransform="translate(23.333 23) scale(22)">
<stop stop-color="white"/>
<stop offset="1" stop-color="white" stop-opacity="0"/>
</radialGradient>
</defs>
</svg>
