<svg width="47" height="46" viewBox="0 0 47 46" fill="none" xmlns="http://www.w3.org/2000/svg">
<g filter="url(#filter0_i_90_200017)">
<rect x="1.66699" y="1" width="44" height="44" rx="12" fill="url(#paint0_linear_90_200017)"/>
<rect x="1.66699" y="1" width="44" height="44" rx="12" fill="url(#paint1_radial_90_200017)" fill-opacity="0.1"/>
<rect x="1.16699" y="0.5" width="45" height="45" rx="12.5" stroke="#767676"/>
<path d="M31.917 19.9971C31.9178 18.6068 31.5673 17.2388 30.8979 16.0202C30.2285 14.8017 29.2621 13.772 28.0883 13.0269C26.9145 12.2818 25.5714 11.8455 24.1838 11.7584C22.7962 11.6713 21.4092 11.9363 20.1514 12.5287C18.8936 13.1212 17.806 14.0219 16.9895 15.1472C16.173 16.2725 15.6542 17.5859 15.4811 18.9654C15.3081 20.3449 15.4865 21.7458 15.9998 23.0379C16.513 24.33 17.3445 25.4714 18.417 26.3561V33.4971C18.4169 33.625 18.4495 33.7508 18.5118 33.8625C18.574 33.9743 18.6638 34.0683 18.7726 34.1355C18.8814 34.2028 19.0055 34.2411 19.1333 34.2469C19.2611 34.2526 19.3882 34.2256 19.5026 34.1683L23.667 32.0908L27.8323 34.173C27.9367 34.223 28.0512 34.2483 28.167 34.2471C28.3659 34.2471 28.5567 34.1681 28.6973 34.0274C28.838 33.8868 28.917 33.696 28.917 33.4971V26.3561C29.8554 25.5833 30.611 24.6123 31.1297 23.5128C31.6484 22.4134 31.9173 21.2127 31.917 19.9971ZM16.917 19.9971C16.917 18.6621 17.3129 17.357 18.0546 16.247C18.7963 15.137 19.8505 14.2718 21.0839 13.7609C22.3173 13.25 23.6745 13.1163 24.9839 13.3768C26.2932 13.6372 27.496 14.2801 28.44 15.2241C29.384 16.1681 30.0268 17.3709 30.2873 18.6802C30.5477 19.9896 30.4141 21.3468 29.9032 22.5802C29.3923 23.8136 28.5271 24.8678 27.4171 25.6095C26.3071 26.3512 25.002 26.7471 23.667 26.7471C21.8774 26.7451 20.1617 26.0333 18.8962 24.7679C17.6308 23.5024 16.919 21.7867 16.917 19.9971ZM27.417 32.284L24.0017 30.5768C23.8975 30.5246 23.7826 30.4975 23.6661 30.4975C23.5495 30.4975 23.4346 30.5246 23.3304 30.5768L19.917 32.284V27.3443C21.078 27.9377 22.3632 28.2471 23.667 28.2471C24.9708 28.2471 26.256 27.9377 27.417 27.3443V32.284ZM23.667 25.2471C24.7053 25.2471 25.7204 24.9392 26.5837 24.3623C27.4471 23.7854 28.12 22.9655 28.5174 22.0062C28.9147 21.0469 29.0187 19.9913 28.8161 18.9729C28.6135 17.9545 28.1135 17.019 27.3793 16.2848C26.6451 15.5506 25.7096 15.0505 24.6912 14.848C23.6728 14.6454 22.6172 14.7494 21.6579 15.1467C20.6986 15.5441 19.8787 16.217 19.3018 17.0803C18.7249 17.9437 18.417 18.9587 18.417 19.9971C18.4185 21.389 18.9721 22.7235 19.9563 23.7078C20.9406 24.692 22.2751 25.2456 23.667 25.2471ZM23.667 16.2471C24.4087 16.2471 25.1337 16.467 25.7504 16.8791C26.3671 17.2911 26.8477 17.8768 27.1315 18.562C27.4154 19.2472 27.4896 20.0012 27.3449 20.7287C27.2002 21.4561 26.8431 22.1243 26.3186 22.6487C25.7942 23.1732 25.126 23.5303 24.3986 23.675C23.6712 23.8197 22.9172 23.7455 22.2319 23.4616C21.5467 23.1778 20.961 22.6972 20.549 22.0805C20.1369 21.4638 19.917 20.7388 19.917 19.9971C19.917 19.0025 20.3121 18.0487 21.0153 17.3454C21.7186 16.6422 22.6724 16.2471 23.667 16.2471Z" fill="#010101"/>
</g>
<defs>
<filter id="filter0_i_90_200017" x="0.666992" y="0" width="46" height="50" filterUnits="userSpaceOnUse" color-interpolation-filters="sRGB">
<feFlood flood-opacity="0" result="BackgroundImageFix"/>
<feBlend mode="normal" in="SourceGraphic" in2="BackgroundImageFix" result="shape"/>
<feColorMatrix in="SourceAlpha" type="matrix" values="0 0 0 0 0 0 0 0 0 0 0 0 0 0 0 0 0 0 127 0" result="hardAlpha"/>
<feOffset dy="4"/>
<feGaussianBlur stdDeviation="2"/>
<feComposite in2="hardAlpha" operator="arithmetic" k2="-1" k3="1"/>
<feColorMatrix type="matrix" values="0 0 0 0 1 0 0 0 0 1 0 0 0 0 1 0 0 0 0.1 0"/>
<feBlend mode="normal" in2="shape" result="effect1_innerShadow_90_200017"/>
</filter>
<linearGradient id="paint0_linear_90_200017" x1="23.781" y1="45" x2="23.781" y2="1" gradientUnits="userSpaceOnUse">
<stop stop-color="#00C2FF"/>
<stop offset="1" stop-color="#7BDFFF"/>
</linearGradient>
<radialGradient id="paint1_radial_90_200017" cx="0" cy="0" r="1" gradientUnits="userSpaceOnUse" gradientTransform="translate(23.667 23) scale(22)">
<stop stop-color="white"/>
<stop offset="1" stop-color="white" stop-opacity="0"/>
</radialGradient>
</defs>
</svg>
