<svg width="47" height="46" viewBox="0 0 47 46" fill="none" xmlns="http://www.w3.org/2000/svg">
<g filter="url(#filter0_i_90_200003)">
<rect x="1.66699" y="1" width="44" height="44" rx="12" fill="url(#paint0_linear_90_200003)"/>
<rect x="1.66699" y="1" width="44" height="44" rx="12" fill="url(#paint1_radial_90_200003)" fill-opacity="0.1"/>
<rect x="1.16699" y="0.5" width="45" height="45" rx="12.5" stroke="#767676"/>
<g clip-path="url(#clip0_90_200003)">
<path d="M29.667 21.875C29.667 22.0975 29.601 22.315 29.4774 22.5C29.3538 22.685 29.1781 22.8292 28.9725 22.9144C28.7669 22.9995 28.5407 23.0218 28.3225 22.9784C28.1043 22.935 27.9038 22.8278 27.7465 22.6705C27.5892 22.5132 27.482 22.3127 27.4386 22.0945C27.3952 21.8762 27.4175 21.65 27.5026 21.4445C27.5878 21.2389 27.732 21.0632 27.917 20.9396C28.102 20.816 28.3195 20.75 28.542 20.75C28.8404 20.75 29.1265 20.8685 29.3375 21.0795C29.5485 21.2905 29.667 21.5766 29.667 21.875ZM25.917 17H22.167C21.9681 17 21.7773 17.079 21.6367 17.2197C21.496 17.3603 21.417 17.5511 21.417 17.75C21.417 17.9489 21.496 18.1397 21.6367 18.2803C21.7773 18.421 21.9681 18.5 22.167 18.5H25.917C26.1159 18.5 26.3067 18.421 26.4473 18.2803C26.588 18.1397 26.667 17.9489 26.667 17.75C26.667 17.5511 26.588 17.3603 26.4473 17.2197C26.3067 17.079 26.1159 17 25.917 17ZM34.917 21.5V24.5C34.917 25.0967 34.6799 25.669 34.258 26.091C33.836 26.5129 33.2637 26.75 32.667 26.75H32.4457L30.9261 31.0044C30.822 31.2958 30.6304 31.5479 30.3775 31.7261C30.1245 31.9044 29.8227 32 29.5132 32H28.3207C28.0113 32 27.7095 31.9044 27.4565 31.7261C27.2036 31.5479 27.012 31.2958 26.9079 31.0044L26.7279 30.5H21.3561L21.1761 31.0044C21.072 31.2958 20.8804 31.5479 20.6275 31.7261C20.3745 31.9044 20.0727 32 19.7632 32H18.5707C18.2613 32 17.9595 31.9044 17.7065 31.7261C17.4536 31.5479 17.262 31.2958 17.1579 31.0044L15.9795 27.7081C14.8584 26.4393 14.1564 24.8553 13.9695 23.1725C13.7275 23.2996 13.5248 23.4905 13.3833 23.7245C13.2419 23.9584 13.1671 24.2266 13.167 24.5C13.167 24.6989 13.088 24.8897 12.9473 25.0303C12.8067 25.171 12.6159 25.25 12.417 25.25C12.2181 25.25 12.0273 25.171 11.8867 25.0303C11.746 24.8897 11.667 24.6989 11.667 24.5C11.6681 23.8312 11.8928 23.1819 12.3052 22.6553C12.7176 22.1287 13.2942 21.7551 13.9432 21.5938C14.1108 19.5269 15.0495 17.5986 16.573 16.1918C18.0965 14.785 20.0933 14.0026 22.167 14H31.917C32.1159 14 32.3067 14.079 32.4473 14.2197C32.588 14.3603 32.667 14.5511 32.667 14.75C32.667 14.9489 32.588 15.1397 32.4473 15.2803C32.3067 15.421 32.1159 15.5 31.917 15.5H29.9117C31.1563 16.3733 32.1352 17.5738 32.7401 18.9688C32.7804 19.0625 32.8198 19.1562 32.8573 19.25C33.4205 19.2978 33.945 19.5558 34.3266 19.9727C34.7083 20.3896 34.919 20.9348 34.917 21.5ZM33.417 21.5C33.417 21.3011 33.338 21.1103 33.1973 20.9697C33.0567 20.829 32.8659 20.75 32.667 20.75H32.3239C32.1641 20.7502 32.0085 20.6993 31.8797 20.6049C31.7509 20.5105 31.6555 20.3774 31.6076 20.225C31.1779 18.8538 30.3212 17.6557 29.1626 16.8057C28.004 15.9557 26.604 15.4982 25.167 15.5H22.167C20.857 15.4999 19.5754 15.881 18.4783 16.5968C17.3812 17.3126 16.5161 18.3322 15.9884 19.5312C15.4608 20.7301 15.2934 22.0568 15.5067 23.3492C15.7201 24.6417 16.3049 25.8442 17.1898 26.81C17.2575 26.8836 17.3098 26.97 17.3436 27.0641L18.5707 30.5H19.7632L20.1214 29.4978C20.1734 29.3522 20.2691 29.2262 20.3955 29.1371C20.5218 29.048 20.6727 29.0001 20.8273 29H27.2567C27.4113 29.0001 27.5621 29.048 27.6885 29.1371C27.8149 29.2262 27.9106 29.3522 27.9626 29.4978L28.3207 30.5H29.5132L31.2111 25.7478C31.2631 25.6022 31.3588 25.4762 31.4852 25.3871C31.6115 25.298 31.7624 25.2501 31.917 25.25H32.667C32.8659 25.25 33.0567 25.171 33.1973 25.0303C33.338 24.8897 33.417 24.6989 33.417 24.5V21.5Z" fill="#010101"/>
</g>
</g>
<defs>
<filter id="filter0_i_90_200003" x="0.666992" y="0" width="46" height="50" filterUnits="userSpaceOnUse" color-interpolation-filters="sRGB">
<feFlood flood-opacity="0" result="BackgroundImageFix"/>
<feBlend mode="normal" in="SourceGraphic" in2="BackgroundImageFix" result="shape"/>
<feColorMatrix in="SourceAlpha" type="matrix" values="0 0 0 0 0 0 0 0 0 0 0 0 0 0 0 0 0 0 127 0" result="hardAlpha"/>
<feOffset dy="4"/>
<feGaussianBlur stdDeviation="2"/>
<feComposite in2="hardAlpha" operator="arithmetic" k2="-1" k3="1"/>
<feColorMatrix type="matrix" values="0 0 0 0 1 0 0 0 0 1 0 0 0 0 1 0 0 0 0.1 0"/>
<feBlend mode="normal" in2="shape" result="effect1_innerShadow_90_200003"/>
</filter>
<linearGradient id="paint0_linear_90_200003" x1="23.781" y1="45" x2="23.781" y2="1" gradientUnits="userSpaceOnUse">
<stop stop-color="#00C2FF"/>
<stop offset="1" stop-color="#7BDFFF"/>
</linearGradient>
<radialGradient id="paint1_radial_90_200003" cx="0" cy="0" r="1" gradientUnits="userSpaceOnUse" gradientTransform="translate(23.667 23) scale(22)">
<stop stop-color="white"/>
<stop offset="1" stop-color="white" stop-opacity="0"/>
</radialGradient>
<clipPath id="clip0_90_200003">
<rect width="24" height="24" fill="white" transform="translate(11.667 11)"/>
</clipPath>
</defs>
</svg>
