<svg width="47" height="46" viewBox="0 0 47 46" fill="none" xmlns="http://www.w3.org/2000/svg">
<g filter="url(#filter0_i_90_200013)">
<rect x="1.33301" y="1" width="44" height="44" rx="12" fill="url(#paint0_linear_90_200013)"/>
<rect x="1.33301" y="1" width="44" height="44" rx="12" fill="url(#paint1_radial_90_200013)" fill-opacity="0.1"/>
<rect x="0.833008" y="0.5" width="45" height="45" rx="12.5" stroke="#767676"/>
<path d="M32.333 15.5H14.333C13.9352 15.5 13.5537 15.658 13.2723 15.9393C12.991 16.2206 12.833 16.6022 12.833 17V29C12.833 29.3978 12.991 29.7794 13.2723 30.0607C13.5537 30.342 13.9352 30.5 14.333 30.5H32.333C32.7308 30.5 33.1124 30.342 33.3937 30.0607C33.675 29.7794 33.833 29.3978 33.833 29V17C33.833 16.6022 33.675 16.2206 33.3937 15.9393C33.1124 15.658 32.7308 15.5 32.333 15.5ZM32.333 17V19.25H14.333V17H32.333ZM32.333 29H14.333V20.75H32.333V29ZM30.833 26.75C30.833 26.9489 30.754 27.1397 30.6133 27.2803C30.4727 27.421 30.2819 27.5 30.083 27.5H27.083C26.8841 27.5 26.6933 27.421 26.5527 27.2803C26.412 27.1397 26.333 26.9489 26.333 26.75C26.333 26.5511 26.412 26.3603 26.5527 26.2197C26.6933 26.079 26.8841 26 27.083 26H30.083C30.2819 26 30.4727 26.079 30.6133 26.2197C30.754 26.3603 30.833 26.5511 30.833 26.75ZM24.833 26.75C24.833 26.9489 24.754 27.1397 24.6133 27.2803C24.4727 27.421 24.2819 27.5 24.083 27.5H22.583C22.3841 27.5 22.1933 27.421 22.0527 27.2803C21.912 27.1397 21.833 26.9489 21.833 26.75C21.833 26.5511 21.912 26.3603 22.0527 26.2197C22.1933 26.079 22.3841 26 22.583 26H24.083C24.2819 26 24.4727 26.079 24.6133 26.2197C24.754 26.3603 24.833 26.5511 24.833 26.75Z" fill="#010101"/>
</g>
<defs>
<filter id="filter0_i_90_200013" x="0.333008" y="0" width="46" height="50" filterUnits="userSpaceOnUse" color-interpolation-filters="sRGB">
<feFlood flood-opacity="0" result="BackgroundImageFix"/>
<feBlend mode="normal" in="SourceGraphic" in2="BackgroundImageFix" result="shape"/>
<feColorMatrix in="SourceAlpha" type="matrix" values="0 0 0 0 0 0 0 0 0 0 0 0 0 0 0 0 0 0 127 0" result="hardAlpha"/>
<feOffset dy="4"/>
<feGaussianBlur stdDeviation="2"/>
<feComposite in2="hardAlpha" operator="arithmetic" k2="-1" k3="1"/>
<feColorMatrix type="matrix" values="0 0 0 0 1 0 0 0 0 1 0 0 0 0 1 0 0 0 0.1 0"/>
<feBlend mode="normal" in2="shape" result="effect1_innerShadow_90_200013"/>
</filter>
<linearGradient id="paint0_linear_90_200013" x1="23.447" y1="45" x2="23.447" y2="1" gradientUnits="userSpaceOnUse">
<stop stop-color="#00C2FF"/>
<stop offset="1" stop-color="#7BDFFF"/>
</linearGradient>
<radialGradient id="paint1_radial_90_200013" cx="0" cy="0" r="1" gradientUnits="userSpaceOnUse" gradientTransform="translate(23.333 23) scale(22)">
<stop stop-color="white"/>
<stop offset="1" stop-color="white" stop-opacity="0"/>
</radialGradient>
</defs>
</svg>
