<svg width="46" height="46" viewBox="0 0 46 46" fill="none" xmlns="http://www.w3.org/2000/svg">
<g filter="url(#filter0_i_90_199993)">
<rect x="1" y="1" width="44" height="44" rx="12" fill="url(#paint0_linear_90_199993)"/>
<rect x="1" y="1" width="44" height="44" rx="12" fill="url(#paint1_radial_90_199993)" fill-opacity="0.1"/>
<rect x="0.5" y="0.5" width="45" height="45" rx="12.5" stroke="#767676"/>
<path d="M31.25 17H16.25C16.0511 17 15.8603 16.921 15.7197 16.7803C15.579 16.6397 15.5 16.4489 15.5 16.25C15.5 16.0511 15.579 15.8603 15.7197 15.7197C15.8603 15.579 16.0511 15.5 16.25 15.5H29C29.1989 15.5 29.3897 15.421 29.5303 15.2803C29.671 15.1397 29.75 14.9489 29.75 14.75C29.75 14.5511 29.671 14.3603 29.5303 14.2197C29.3897 14.079 29.1989 14 29 14H16.25C15.6533 14 15.081 14.2371 14.659 14.659C14.2371 15.081 14 15.6533 14 16.25V28.25C14 28.8467 14.2371 29.419 14.659 29.841C15.081 30.2629 15.6533 30.5 16.25 30.5H31.25C31.6478 30.5 32.0294 30.342 32.3107 30.0607C32.592 29.7794 32.75 29.3978 32.75 29V18.5C32.75 18.1022 32.592 17.7206 32.3107 17.4393C32.0294 17.158 31.6478 17 31.25 17ZM31.25 29H16.25C16.0511 29 15.8603 28.921 15.7197 28.7803C15.579 28.6397 15.5 28.4489 15.5 28.25V18.3716C15.7408 18.4569 15.9945 18.5004 16.25 18.5H31.25V29ZM26.75 23.375C26.75 23.1525 26.816 22.935 26.9396 22.75C27.0632 22.565 27.2389 22.4208 27.4445 22.3356C27.65 22.2505 27.8762 22.2282 28.0945 22.2716C28.3127 22.315 28.5132 22.4222 28.6705 22.5795C28.8278 22.7368 28.935 22.9373 28.9784 23.1555C29.0218 23.3738 28.9995 23.6 28.9144 23.8055C28.8292 24.0111 28.685 24.1868 28.5 24.3104C28.315 24.434 28.0975 24.5 27.875 24.5C27.5766 24.5 27.2905 24.3815 27.0795 24.1705C26.8685 23.9595 26.75 23.6734 26.75 23.375Z" fill="#010101"/>
</g>
<defs>
<filter id="filter0_i_90_199993" x="0" y="0" width="46" height="50" filterUnits="userSpaceOnUse" color-interpolation-filters="sRGB">
<feFlood flood-opacity="0" result="BackgroundImageFix"/>
<feBlend mode="normal" in="SourceGraphic" in2="BackgroundImageFix" result="shape"/>
<feColorMatrix in="SourceAlpha" type="matrix" values="0 0 0 0 0 0 0 0 0 0 0 0 0 0 0 0 0 0 127 0" result="hardAlpha"/>
<feOffset dy="4"/>
<feGaussianBlur stdDeviation="2"/>
<feComposite in2="hardAlpha" operator="arithmetic" k2="-1" k3="1"/>
<feColorMatrix type="matrix" values="0 0 0 0 1 0 0 0 0 1 0 0 0 0 1 0 0 0 0.1 0"/>
<feBlend mode="normal" in2="shape" result="effect1_innerShadow_90_199993"/>
</filter>
<linearGradient id="paint0_linear_90_199993" x1="23.114" y1="45" x2="23.114" y2="1" gradientUnits="userSpaceOnUse">
<stop stop-color="#00C2FF"/>
<stop offset="1" stop-color="#7BDFFF"/>
</linearGradient>
<radialGradient id="paint1_radial_90_199993" cx="0" cy="0" r="1" gradientUnits="userSpaceOnUse" gradientTransform="translate(23 23) scale(22)">
<stop stop-color="white"/>
<stop offset="1" stop-color="white" stop-opacity="0"/>
</radialGradient>
</defs>
</svg>
