<svg width="24" height="13" viewBox="0 0 24 13" fill="none" xmlns="http://www.w3.org/2000/svg">
<path d="M6.75 0.71875C5.56332 0.71875 4.40328 1.07064 3.41658 1.72993C2.42989 2.38922 1.66085 3.32629 1.20673 4.42265C0.7526 5.51901 0.63378 6.72541 0.865291 7.88929C1.0968 9.05318 1.66825 10.1223 2.50736 10.9614C3.34648 11.8005 4.41558 12.372 5.57946 12.6035C6.74335 12.835 7.94975 12.7162 9.0461 12.262C10.1425 11.8079 11.0795 11.0389 11.7388 10.0522C12.3981 9.06548 12.75 7.90544 12.75 6.71875C12.7483 5.12798 12.1156 3.60287 10.9907 2.47803C9.86588 1.35319 8.34077 0.720487 6.75 0.71875ZM6.75 11.2188C5.85999 11.2188 4.98996 10.9548 4.24994 10.4604C3.50992 9.9659 2.93314 9.26309 2.59254 8.44083C2.25195 7.61856 2.16284 6.71376 2.33647 5.84084C2.5101 4.96793 2.93869 4.16611 3.56802 3.53677C4.19736 2.90743 4.99918 2.47885 5.8721 2.30522C6.74501 2.13158 7.64981 2.2207 8.47208 2.56129C9.29435 2.90189 9.99715 3.47866 10.4916 4.21868C10.9861 4.9587 11.25 5.82873 11.25 6.71875C11.2488 7.91184 10.7743 9.05572 9.93061 9.89936C9.08697 10.743 7.9431 11.2175 6.75 11.2188ZM17.25 0.71875C16.7175 0.71875 15.7125 0.9775 14.97 2.71094C14.5059 3.79375 14.25 5.21875 14.25 6.71875C14.25 8.21875 14.5059 9.64375 14.97 10.7266C15.7125 12.46 16.7175 12.7188 17.25 12.7188C17.7825 12.7188 18.7875 12.46 19.53 10.7266C19.9941 9.64375 20.25 8.21875 20.25 6.71875C20.25 5.21875 19.9941 3.79375 19.53 2.71094C18.7875 0.9775 17.7825 0.71875 17.25 0.71875ZM17.25 11.2188C16.7213 11.2188 15.75 9.51063 15.75 6.71875C15.75 3.92687 16.7213 2.21875 17.25 2.21875C17.7788 2.21875 18.75 3.92687 18.75 6.71875C18.75 9.51063 17.7788 11.2188 17.25 11.2188ZM23.25 1.46875V11.9688C23.25 12.1677 23.171 12.3584 23.0303 12.4991C22.8897 12.6397 22.6989 12.7188 22.5 12.7188C22.3011 12.7188 22.1103 12.6397 21.9697 12.4991C21.829 12.3584 21.75 12.1677 21.75 11.9688V1.46875C21.75 1.26984 21.829 1.07907 21.9697 0.93842C22.1103 0.797768 22.3011 0.71875 22.5 0.71875C22.6989 0.71875 22.8897 0.797768 23.0303 0.93842C23.171 1.07907 23.25 1.26984 23.25 1.46875Z" fill="#F6F7FF"/>
</svg>
