<svg width="180" height="25" viewBox="0 0 180 25" fill="none" xmlns="http://www.w3.org/2000/svg">
<path fill-rule="evenodd" clip-rule="evenodd" d="M31.5027 4.0356H40.4734L30.9611 19.8551H35.6325L45 4.0097V0.5H28.0918C29.5045 1.34501 30.6834 2.56728 31.5027 4.0356Z" fill="#692FC7"/>
<path fill-rule="evenodd" clip-rule="evenodd" d="M21.8154 0.5H4.94807C10.0625 0.5 14.2086 4.82898 14.2086 10.1691C14.2086 15.5092 10.0625 19.8381 4.94807 19.8381H17.1787L21.4709 24.5L22.6088 19.8031C27.3518 19.383 31.0759 15.2301 31.0759 10.1691C31.0759 4.82898 26.9298 0.5 21.8154 0.5ZM21.8981 16.0396C24.9577 16.0396 27.4378 13.4113 27.4378 10.1691C27.4378 6.92682 24.9577 4.29856 21.8981 4.29856C18.8385 4.29856 16.3583 6.92682 16.3583 10.1691C16.3583 13.4113 18.8385 16.0396 21.8981 16.0396Z" fill="#692FC7"/>
<path d="M4.9494 15.3364C2.2159 15.3364 0 13.0227 0 10.1686C0 7.3145 2.2159 5.00083 4.9494 5.00083C7.6829 5.00083 9.8988 7.3145 9.8988 10.1686C9.8988 13.0227 7.6829 15.3364 4.9494 15.3364Z" fill="#692FC7"/>
<path d="M54.512 18.144C54.224 18.144 53.99 18.078 53.81 17.946C53.642 17.814 53.54 17.64 53.504 17.424C53.468 17.196 53.51 16.944 53.63 16.668L58.382 6.138C58.538 5.79 58.724 5.544 58.94 5.4C59.168 5.244 59.426 5.166 59.714 5.166C59.99 5.166 60.236 5.244 60.452 5.4C60.68 5.544 60.872 5.79 61.028 6.138L65.798 16.668C65.93 16.944 65.978 17.196 65.942 17.424C65.906 17.652 65.804 17.832 65.636 17.964C65.468 18.084 65.246 18.144 64.97 18.144C64.634 18.144 64.37 18.066 64.178 17.91C63.998 17.742 63.836 17.49 63.692 17.154L62.522 14.436L63.494 15.066H55.898L56.87 14.436L55.718 17.154C55.562 17.502 55.4 17.754 55.232 17.91C55.064 18.066 54.824 18.144 54.512 18.144ZM59.678 7.812L57.158 13.806L56.69 13.23H62.702L62.252 13.806L59.714 7.812H59.678ZM71.5806 21.42C70.9326 21.42 70.3026 21.36 69.6906 21.24C69.0906 21.12 68.5446 20.934 68.0526 20.682C67.8246 20.562 67.6686 20.418 67.5846 20.25C67.5126 20.082 67.4886 19.908 67.5126 19.728C67.5486 19.56 67.6206 19.41 67.7286 19.278C67.8486 19.146 67.9926 19.056 68.1606 19.008C68.3286 18.96 68.5026 18.984 68.6826 19.08C69.2106 19.344 69.7086 19.512 70.1766 19.584C70.6566 19.668 71.0646 19.71 71.4006 19.71C72.2046 19.71 72.8046 19.512 73.2006 19.116C73.6086 18.732 73.8126 18.156 73.8126 17.388V15.768H73.9746C73.7946 16.38 73.4166 16.872 72.8406 17.244C72.2766 17.604 71.6346 17.784 70.9146 17.784C70.1226 17.784 69.4326 17.604 68.8446 17.244C68.2566 16.872 67.8006 16.356 67.4766 15.696C67.1526 15.036 66.9906 14.268 66.9906 13.392C66.9906 12.732 67.0806 12.138 67.2606 11.61C67.4526 11.07 67.7166 10.608 68.0526 10.224C68.4006 9.84 68.8146 9.546 69.2946 9.342C69.7866 9.126 70.3266 9.018 70.9146 9.018C71.6586 9.018 72.3066 9.204 72.8586 9.576C73.4226 9.936 73.7886 10.416 73.9566 11.016L73.7766 11.466V10.188C73.7766 9.816 73.8726 9.534 74.0646 9.342C74.2686 9.15 74.5446 9.054 74.8926 9.054C75.2526 9.054 75.5286 9.15 75.7206 9.342C75.9126 9.534 76.0086 9.816 76.0086 10.188V17.118C76.0086 18.546 75.6306 19.62 74.8746 20.34C74.1186 21.06 73.0206 21.42 71.5806 21.42ZM71.5266 16.074C71.9946 16.074 72.3966 15.966 72.7326 15.75C73.0686 15.534 73.3266 15.228 73.5066 14.832C73.6986 14.424 73.7946 13.944 73.7946 13.392C73.7946 12.564 73.5906 11.916 73.1826 11.448C72.7746 10.968 72.2226 10.728 71.5266 10.728C71.0586 10.728 70.6566 10.836 70.3206 11.052C69.9846 11.268 69.7206 11.574 69.5286 11.97C69.3486 12.366 69.2586 12.84 69.2586 13.392C69.2586 14.22 69.4626 14.874 69.8706 15.354C70.2786 15.834 70.8306 16.074 71.5266 16.074ZM82.6779 18.18C81.6819 18.18 80.8239 17.994 80.1039 17.622C79.3839 17.25 78.8259 16.722 78.4299 16.038C78.0459 15.354 77.8539 14.544 77.8539 13.608C77.8539 12.696 78.0399 11.898 78.4119 11.214C78.7959 10.53 79.3179 9.996 79.9779 9.612C80.6499 9.216 81.4119 9.018 82.2639 9.018C82.8879 9.018 83.4459 9.12 83.9379 9.324C84.4419 9.528 84.8679 9.822 85.2159 10.206C85.5759 10.59 85.8459 11.058 86.0259 11.61C86.2179 12.15 86.3139 12.762 86.3139 13.446C86.3139 13.662 86.2359 13.83 86.0799 13.95C85.9359 14.058 85.7259 14.112 85.4499 14.112H79.6719V12.816H84.7299L84.4419 13.086C84.4419 12.534 84.3579 12.072 84.1899 11.7C84.0339 11.328 83.7999 11.046 83.4879 10.854C83.1879 10.65 82.8099 10.548 82.3539 10.548C81.8499 10.548 81.4179 10.668 81.0579 10.908C80.7099 11.136 80.4399 11.466 80.2479 11.898C80.0679 12.318 79.9779 12.822 79.9779 13.41V13.536C79.9779 14.52 80.2059 15.258 80.6619 15.75C81.1299 16.23 81.8139 16.47 82.7139 16.47C83.0259 16.47 83.3739 16.434 83.7579 16.362C84.1539 16.278 84.5259 16.14 84.8739 15.948C85.1259 15.804 85.3479 15.744 85.5399 15.768C85.7319 15.78 85.8819 15.846 85.9899 15.966C86.1099 16.086 86.1819 16.236 86.2059 16.416C86.2299 16.584 86.1939 16.758 86.0979 16.938C86.0139 17.118 85.8639 17.274 85.6479 17.406C85.2279 17.67 84.7419 17.868 84.1899 18C83.6499 18.12 83.1459 18.18 82.6779 18.18ZM89.2118 18.144C88.8518 18.144 88.5758 18.048 88.3838 17.856C88.1918 17.652 88.0958 17.364 88.0958 16.992V10.188C88.0958 9.816 88.1918 9.534 88.3838 9.342C88.5758 9.15 88.8458 9.054 89.1938 9.054C89.5418 9.054 89.8118 9.15 90.0038 9.342C90.1958 9.534 90.2918 9.816 90.2918 10.188V11.412L90.0938 10.962C90.3578 10.326 90.7658 9.846 91.3178 9.522C91.8818 9.186 92.5178 9.018 93.2258 9.018C93.9338 9.018 94.5158 9.15 94.9718 9.414C95.4278 9.678 95.7698 10.08 95.9978 10.62C96.2258 11.148 96.3398 11.82 96.3398 12.636V16.992C96.3398 17.364 96.2438 17.652 96.0518 17.856C95.8598 18.048 95.5838 18.144 95.2238 18.144C94.8638 18.144 94.5818 18.048 94.3778 17.856C94.1858 17.652 94.0898 17.364 94.0898 16.992V12.744C94.0898 12.06 93.9578 11.562 93.6938 11.25C93.4418 10.938 93.0458 10.782 92.5058 10.782C91.8458 10.782 91.3178 10.992 90.9218 11.412C90.5378 11.82 90.3458 12.366 90.3458 13.05V16.992C90.3458 17.76 89.9678 18.144 89.2118 18.144ZM102.657 18.18C101.877 18.18 101.223 18.048 100.695 17.784C100.179 17.52 99.7951 17.136 99.5431 16.632C99.2911 16.116 99.1651 15.48 99.1651 14.724V10.89H98.2291C97.9411 10.89 97.7191 10.818 97.5631 10.674C97.4071 10.518 97.3291 10.308 97.3291 10.044C97.3291 9.768 97.4071 9.558 97.5631 9.414C97.7191 9.27 97.9411 9.198 98.2291 9.198H99.1651V7.56C99.1651 7.188 99.2611 6.906 99.4531 6.714C99.6571 6.522 99.9391 6.426 100.299 6.426C100.659 6.426 100.935 6.522 101.127 6.714C101.319 6.906 101.415 7.188 101.415 7.56V9.198H103.323C103.611 9.198 103.833 9.27 103.989 9.414C104.145 9.558 104.223 9.768 104.223 10.044C104.223 10.308 104.145 10.518 103.989 10.674C103.833 10.818 103.611 10.89 103.323 10.89H101.415V14.598C101.415 15.174 101.541 15.606 101.793 15.894C102.045 16.182 102.453 16.326 103.017 16.326C103.221 16.326 103.401 16.308 103.557 16.272C103.713 16.236 103.851 16.212 103.971 16.2C104.115 16.188 104.235 16.236 104.331 16.344C104.427 16.44 104.475 16.644 104.475 16.956C104.475 17.196 104.433 17.412 104.349 17.604C104.277 17.784 104.139 17.91 103.935 17.982C103.779 18.03 103.575 18.072 103.323 18.108C103.071 18.156 102.849 18.18 102.657 18.18ZM106.878 18.126C106.518 18.126 106.242 18.018 106.05 17.802C105.858 17.586 105.762 17.286 105.762 16.902V10.296C105.762 9.9 105.858 9.6 106.05 9.396C106.242 9.18 106.518 9.072 106.878 9.072C107.238 9.072 107.514 9.18 107.706 9.396C107.91 9.6 108.012 9.9 108.012 10.296V16.902C108.012 17.286 107.916 17.586 107.724 17.802C107.532 18.018 107.25 18.126 106.878 18.126ZM106.878 7.398C106.458 7.398 106.128 7.296 105.888 7.092C105.66 6.876 105.546 6.582 105.546 6.21C105.546 5.826 105.66 5.532 105.888 5.328C106.128 5.124 106.458 5.022 106.878 5.022C107.31 5.022 107.64 5.124 107.868 5.328C108.096 5.532 108.21 5.826 108.21 6.21C108.21 6.582 108.096 6.876 107.868 7.092C107.64 7.296 107.31 7.398 106.878 7.398ZM114.418 18.18C113.494 18.18 112.69 17.994 112.006 17.622C111.322 17.238 110.794 16.698 110.422 16.002C110.05 15.306 109.864 14.49 109.864 13.554C109.864 12.846 109.966 12.216 110.17 11.664C110.386 11.1 110.692 10.626 111.088 10.242C111.484 9.846 111.964 9.546 112.528 9.342C113.092 9.126 113.722 9.018 114.418 9.018C114.814 9.018 115.24 9.072 115.696 9.18C116.164 9.288 116.602 9.468 117.01 9.72C117.202 9.84 117.328 9.984 117.388 10.152C117.448 10.32 117.46 10.494 117.424 10.674C117.388 10.842 117.31 10.992 117.19 11.124C117.082 11.244 116.944 11.322 116.776 11.358C116.608 11.382 116.422 11.34 116.218 11.232C115.954 11.076 115.684 10.962 115.408 10.89C115.132 10.806 114.868 10.764 114.616 10.764C114.22 10.764 113.872 10.83 113.572 10.962C113.272 11.082 113.014 11.262 112.798 11.502C112.594 11.73 112.438 12.018 112.33 12.366C112.222 12.714 112.168 13.116 112.168 13.572C112.168 14.46 112.378 15.162 112.798 15.678C113.23 16.182 113.836 16.434 114.616 16.434C114.868 16.434 115.126 16.398 115.39 16.326C115.666 16.254 115.942 16.14 116.218 15.984C116.422 15.876 116.602 15.84 116.758 15.876C116.926 15.912 117.064 15.996 117.172 16.128C117.28 16.248 117.346 16.398 117.37 16.578C117.394 16.746 117.37 16.914 117.298 17.082C117.238 17.25 117.118 17.388 116.938 17.496C116.542 17.736 116.122 17.91 115.678 18.018C115.234 18.126 114.814 18.18 114.418 18.18ZM123.07 18.18C121.57 18.18 120.424 17.616 119.632 16.488C118.84 15.348 118.444 13.728 118.444 11.628C118.444 10.212 118.618 9.024 118.966 8.064C119.326 7.092 119.848 6.36 120.532 5.868C121.228 5.376 122.074 5.13 123.07 5.13C124.582 5.13 125.728 5.682 126.508 6.786C127.3 7.89 127.696 9.498 127.696 11.61C127.696 13.014 127.516 14.208 127.156 15.192C126.808 16.164 126.292 16.908 125.608 17.424C124.924 17.928 124.078 18.18 123.07 18.18ZM123.07 16.29C123.886 16.29 124.486 15.912 124.87 15.156C125.266 14.4 125.464 13.218 125.464 11.61C125.464 10.002 125.266 8.838 124.87 8.118C124.486 7.386 123.886 7.02 123.07 7.02C122.266 7.02 121.666 7.386 121.27 8.118C120.874 8.838 120.676 10.002 120.676 11.61C120.676 13.218 120.874 14.4 121.27 15.156C121.666 15.912 122.266 16.29 123.07 16.29ZM133.863 18.18C132.363 18.18 131.217 17.616 130.425 16.488C129.633 15.348 129.237 13.728 129.237 11.628C129.237 10.212 129.411 9.024 129.759 8.064C130.119 7.092 130.641 6.36 131.325 5.868C132.021 5.376 132.867 5.13 133.863 5.13C135.375 5.13 136.521 5.682 137.301 6.786C138.093 7.89 138.489 9.498 138.489 11.61C138.489 13.014 138.309 14.208 137.949 15.192C137.601 16.164 137.085 16.908 136.401 17.424C135.717 17.928 134.871 18.18 133.863 18.18ZM133.863 16.29C134.679 16.29 135.279 15.912 135.663 15.156C136.059 14.4 136.257 13.218 136.257 11.61C136.257 10.002 136.059 8.838 135.663 8.118C135.279 7.386 134.679 7.02 133.863 7.02C133.059 7.02 132.459 7.386 132.063 8.118C131.667 8.838 131.469 10.002 131.469 11.61C131.469 13.218 131.667 14.4 132.063 15.156C132.459 15.912 133.059 16.29 133.863 16.29ZM142.352 18.144C142.076 18.144 141.848 18.078 141.668 17.946C141.488 17.814 141.38 17.64 141.344 17.424C141.308 17.196 141.362 16.944 141.506 16.668L146.942 6.444V7.236H141.11C140.786 7.236 140.534 7.152 140.354 6.984C140.186 6.816 140.102 6.582 140.102 6.282C140.102 5.97 140.186 5.73 140.354 5.562C140.534 5.394 140.786 5.31 141.11 5.31H148.076C148.4 5.31 148.664 5.394 148.868 5.562C149.072 5.73 149.174 5.97 149.174 6.282C149.174 6.546 149.138 6.78 149.066 6.984C148.994 7.176 148.898 7.386 148.778 7.614L143.666 17.388C143.534 17.652 143.36 17.844 143.144 17.964C142.94 18.084 142.676 18.144 142.352 18.144Z" fill="#1A1621"/>
</svg>
